<svg width="26" height="20" viewBox="0 0 26 20" fill="none" xmlns="http://www.w3.org/2000/svg">
<path d="M8.45502 20C17.7417 20 22.8203 12.3061 22.8203 5.63472C22.8203 5.41612 22.8158 5.19865 22.8057 4.98202C23.7915 4.26942 24.6485 3.37993 25.3245 2.36786C24.4199 2.76978 23.4464 3.04043 22.4251 3.16246C23.4674 2.53747 24.2679 1.54834 24.6455 0.369453C23.6698 0.947983 22.5894 1.36838 21.4396 1.59509C20.5179 0.613796 19.2058 0 17.754 0C14.9655 0 12.7043 2.26122 12.7043 5.04835C12.7043 5.44467 12.7488 5.8298 12.835 6.19953C8.63919 5.98878 4.91835 3.97946 2.42846 0.924752C1.99435 1.67066 1.74441 2.53775 1.74441 3.46222C1.74441 5.21376 2.63586 6.76015 3.99136 7.66503C3.16317 7.63956 2.38508 7.41173 1.70467 7.03332C1.70355 7.05431 1.70355 7.07558 1.70355 7.09769C1.70355 9.54308 3.44417 11.5846 5.7541 12.0472C5.33006 12.1628 4.88392 12.225 4.42322 12.225C4.09799 12.225 3.78172 12.1925 3.47412 12.134C4.11675 14.1397 5.9808 15.5996 8.1908 15.6407C6.46249 16.9951 4.28552 17.802 1.92018 17.802C1.51294 17.802 1.11102 17.7788 0.71582 17.7321C2.95017 19.164 5.60323 20 8.45502 20Z" fill="white"/>
</svg>
