<svg width="21" height="20" viewBox="0 0 21 20" fill="none" xmlns="http://www.w3.org/2000/svg">
<path d="M10.3242 1.83333C12.9909 1.83333 13.3242 1.83333 14.4076 1.91667C17.1576 2 18.4076 3.33333 18.4909 6C18.5742 7.08333 18.5742 7.33333 18.5742 10C18.5742 12.6667 18.5742 13 18.4909 14C18.4076 16.6667 17.0742 18 14.4076 18.0833C13.3242 18.1667 13.0742 18.1667 10.3242 18.1667C7.65755 18.1667 7.32422 18.1667 6.32422 18.0833C3.57422 18 2.32422 16.6667 2.24089 14C2.15755 12.9167 2.15755 12.6667 2.15755 10C2.15755 7.33333 2.15755 7 2.24089 6C2.32422 3.33333 3.65755 2 6.32422 1.91667C7.32422 1.83333 7.65755 1.83333 10.3242 1.83333ZM10.3242 0C7.57422 0 7.24089 0 6.24089 0.0833333C2.57422 0.25 0.574219 2.25 0.407552 5.91667C0.324219 6.91667 0.324219 7.25 0.324219 10C0.324219 12.75 0.324219 13.0833 0.407552 14.0833C0.574219 17.75 2.57422 19.75 6.24089 19.9167C7.24089 20 7.57422 20 10.3242 20C13.0742 20 13.4076 20 14.4076 19.9167C18.0742 19.75 20.0742 17.75 20.2409 14.0833C20.3242 13.0833 20.3242 12.75 20.3242 10C20.3242 7.25 20.3242 6.91667 20.2409 5.91667C20.0742 2.25 18.0742 0.25 14.4076 0.0833333C13.4076 0 13.0742 0 10.3242 0ZM10.3242 4.83333C7.49089 4.83333 5.15755 7.16667 5.15755 10C5.15755 12.8333 7.49089 15.1667 10.3242 15.1667C13.1576 15.1667 15.4909 12.8333 15.4909 10C15.4909 7.16667 13.1576 4.83333 10.3242 4.83333ZM10.3242 13.3333C8.49088 13.3333 6.99089 11.8333 6.99089 10C6.99089 8.16667 8.49088 6.66667 10.3242 6.66667C12.1576 6.66667 13.6576 8.16667 13.6576 10C13.6576 11.8333 12.1576 13.3333 10.3242 13.3333ZM15.6576 3.5C14.9909 3.5 14.4909 4 14.4909 4.66667C14.4909 5.33333 14.9909 5.83333 15.6576 5.83333C16.3242 5.83333 16.8242 5.33333 16.8242 4.66667C16.8242 4 16.3242 3.5 15.6576 3.5Z" fill="white"/>
</svg>
