<svg width="28" height="28" viewBox="0 0 28 28" fill="none" xmlns="http://www.w3.org/2000/svg">
<path d="M14 27.75C13.6685 27.75 13.3505 27.6183 13.1161 27.3839C12.8817 27.1495 12.75 26.8315 12.75 26.5V22.75H7.75C7.08696 22.75 6.45107 22.4866 5.98223 22.0178C5.51339 21.5489 5.25 20.913 5.25 20.25V7.75C5.25 7.08696 5.51339 6.45107 5.98223 5.98223C6.45107 5.51339 7.08696 5.25 7.75 5.25H25.25C25.913 5.25 26.5489 5.51339 27.0178 5.98223C27.4866 6.45107 27.75 7.08696 27.75 7.75V20.25C27.75 20.913 27.4866 21.5489 27.0178 22.0178C26.5489 22.4866 25.913 22.75 25.25 22.75H20.125L15.5 27.3875C15.25 27.625 14.9375 27.75 14.625 27.75H14ZM15.25 20.25V24.1L19.1 20.25H25.25V7.75H7.75V20.25H15.25ZM2.75 17.75H0.25V2.75C0.25 2.08696 0.513392 1.45107 0.982233 0.982233C1.45107 0.513392 2.08696 0.25 2.75 0.25H22.75V2.75H2.75V17.75Z" fill="#1E1E1E"/>
</svg>
