<svg width="30" height="30" viewBox="0 0 30 30" fill="none" xmlns="http://www.w3.org/2000/svg">
<path d="M15 28.75C14.6685 28.75 14.3505 28.6183 14.1161 28.3839C13.8817 28.1495 13.75 27.8315 13.75 27.5V23.75H8.75C8.08696 23.75 7.45107 23.4866 6.98223 23.0178C6.51339 22.5489 6.25 21.913 6.25 21.25V8.75C6.25 8.08696 6.51339 7.45107 6.98223 6.98223C7.45107 6.51339 8.08696 6.25 8.75 6.25H26.25C26.913 6.25 27.5489 6.51339 28.0178 6.98223C28.4866 7.45107 28.75 8.08696 28.75 8.75V21.25C28.75 21.913 28.4866 22.5489 28.0178 23.0178C27.5489 23.4866 26.913 23.75 26.25 23.75H21.125L16.5 28.3875C16.25 28.625 15.9375 28.75 15.625 28.75H15ZM16.25 21.25V25.1L20.1 21.25H26.25V8.75H8.75V21.25H16.25ZM3.75 18.75H1.25V3.75C1.25 3.08696 1.51339 2.45107 1.98223 1.98223C2.45107 1.51339 3.08696 1.25 3.75 1.25H23.75V3.75H3.75V18.75Z" fill="#5800D6"/>
</svg>
