<svg width="32" height="32" viewBox="0 0 32 32" fill="none" xmlns="http://www.w3.org/2000/svg">
<path d="M14.26 30L16 29L12 22H6C5.46957 22 4.96086 21.7893 4.58579 21.4142C4.21071 21.0391 4 20.5304 4 20V8C4 7.46957 4.21071 6.96086 4.58579 6.58579C4.96086 6.21071 5.46957 6 6 6H26C26.5304 6 27.0391 6.21071 27.4142 6.58579C27.7893 6.96086 28 7.46957 28 8V20C28 20.5304 27.7893 21.0391 27.4142 21.4142C27.0391 21.7893 26.5304 22 26 22H17V24H26C27.0609 24 28.0783 23.5786 28.8284 22.8284C29.5786 22.0783 30 21.0609 30 20V8C30 6.93913 29.5786 5.92172 28.8284 5.17157C28.0783 4.42143 27.0609 4 26 4H6C4.93913 4 3.92172 4.42143 3.17157 5.17157C2.42143 5.92172 2 6.93913 2 8V20C2 21.0609 2.42143 22.0783 3.17157 22.8284C3.92172 23.5786 4.93913 24 6 24H10.84L14.26 30Z" fill="#CE1A1A"/>
<path d="M24 10H8V12H24V10ZM24 16H14V18H24V16Z" fill="#CE1A1A"/>
<path d="M14.26 30L16 29L12 22H6C5.46957 22 4.96086 21.7893 4.58579 21.4142C4.21071 21.0391 4 20.5304 4 20V8C4 7.46957 4.21071 6.96086 4.58579 6.58579C4.96086 6.21071 5.46957 6 6 6H26C26.5304 6 27.0391 6.21071 27.4142 6.58579C27.7893 6.96086 28 7.46957 28 8V20C28 20.5304 27.7893 21.0391 27.4142 21.4142C27.0391 21.7893 26.5304 22 26 22H17V24H26C27.0609 24 28.0783 23.5786 28.8284 22.8284C29.5786 22.0783 30 21.0609 30 20V8C30 6.93913 29.5786 5.92172 28.8284 5.17157C28.0783 4.42143 27.0609 4 26 4H6C4.93913 4 3.92172 4.42143 3.17157 5.17157C2.42143 5.92172 2 6.93913 2 8V20C2 21.0609 2.42143 22.0783 3.17157 22.8284C3.92172 23.5786 4.93913 24 6 24H10.84L14.26 30Z" fill="#FEDD4E"/>
<path d="M24 10H8V12H24V10ZM24 16H14V18H24V16Z" fill="#FEDD4E"/>
</svg>
