<svg width="35" height="35" viewBox="0 0 35 35" fill="none" xmlns="http://www.w3.org/2000/svg">
<path d="M4.02339 0.65657C3.58229 0.230512 2.99151 -0.00524068 2.37829 8.84184e-05C1.76506 0.00541752 1.17846 0.251403 0.744834 0.685062C0.311203 1.11872 0.0652342 1.70536 0.0599055 2.31862C0.0545767 2.93189 0.290314 3.52271 0.716343 3.96384L14.2229 17.4713L0.714005 30.9787C0.490626 31.1944 0.312452 31.4525 0.189878 31.7379C0.0673043 32.0232 0.00278684 32.3302 8.83058e-05 32.6407C-0.00261023 32.9513 0.0565647 33.2593 0.174161 33.5467C0.291758 33.8342 0.46542 34.0953 0.685015 34.3149C0.904611 34.5345 1.16574 34.7082 1.45317 34.8258C1.7406 34.9434 2.04857 35.0026 2.35911 34.9999C2.66966 34.9972 2.97655 34.9327 3.26189 34.8101C3.54724 34.6875 3.80531 34.5093 4.02105 34.2859L17.5299 20.7785L31.0364 34.2859C31.4775 34.712 32.0683 34.9478 32.6815 34.9424C33.2948 34.9371 33.8814 34.6911 34.315 34.2575C34.7486 33.8238 34.9946 33.2372 34.9999 32.6239C35.0052 32.0106 34.7695 31.4198 34.3435 30.9787L20.837 17.4713L34.3435 3.96384C34.7695 3.52271 35.0052 2.93189 34.9999 2.31862C34.9946 1.70536 34.7486 1.11872 34.315 0.685062C33.8814 0.251403 33.2948 0.00541752 32.6815 8.84184e-05C32.0683 -0.00524068 31.4775 0.230512 31.0364 0.65657L17.5299 14.164L4.02339 0.65657Z" fill="#1E1E1E"/>
</svg>
