<svg width="26" height="24" viewBox="0 0 26 24" fill="none" xmlns="http://www.w3.org/2000/svg">
<path fill-rule="evenodd" clip-rule="evenodd" d="M20.3125 5.47222C20.3125 4.76088 20.3134 4.24875 20.3477 3.84855C20.3827 3.4398 20.4443 3.28986 20.4736 3.24109C20.4811 3.22851 20.4841 3.22634 20.4881 3.22346L20.4887 3.22302C20.4968 3.21707 20.5311 3.19399 20.618 3.16715C20.8129 3.10702 21.1515 3.0625 21.75 3.0625C22.3485 3.0625 22.6871 3.10702 22.882 3.16715C22.9689 3.19399 23.0032 3.21707 23.0113 3.22302L23.0119 3.22346C23.0159 3.22634 23.0189 3.22851 23.0264 3.24109C23.0557 3.28986 23.1173 3.4398 23.1523 3.84855C23.1866 4.24875 23.1875 4.76088 23.1875 5.47222V5.48855V5.50499V5.52153V5.53819V5.55494V5.57181V5.58878V5.60585V5.62303V5.64032V5.6577V5.67519V5.69279V5.71049V5.72828V5.74618V5.76419V5.78229V5.80049V5.8188V5.8372V5.8557V5.8743V5.893V5.9118V5.93069V5.94969V5.96877V5.98796V6.00724V6.02662V6.04609V6.06565V6.08531V6.10507V6.12491V6.14485V6.16489V6.18501V6.20523V6.22553V6.24593V6.26642V6.287V6.30767V6.32842V6.34927V6.3702V6.39122V6.41233V6.43353V6.45481V6.47618V6.49763V6.51917V6.5408V6.56251V6.5843V6.60617V6.62813V6.65018V6.6723V6.69451V6.7168V6.73917V6.76162V6.78415V6.80676V6.82944V6.85221V6.87506V6.89798V6.92099V6.94407V6.96722V6.99046V7.01376V7.03715V7.06061V7.08414V7.10775V7.13143V7.15519V7.17902V7.20292V7.2269V7.25094V7.27506V7.29925V7.3235V7.34783V7.37223V7.3967V7.42123V7.44584V7.47051V7.49525V7.52006V7.54493V7.56987V7.59488V7.61995V7.64509V7.67029V7.69556V7.72088V7.74628V7.77173V7.79725V7.82283V7.84847V7.87418V7.89994V7.92576V7.95165V7.97759V8.00359V8.02965V8.05577V8.08195V8.10819V8.13448V8.16083V8.18723V8.21369V8.24021V8.26678V8.2934V8.32008V8.34681V8.3736V8.40044V8.42733V8.45427V8.48127V8.50831V8.53541V8.56255V8.58975V8.617V8.64429V8.67163V8.69902V8.72646V8.75395V8.78148V8.80906V8.83669V8.86436V8.89207V8.91984V8.94764V8.97549V9.00338V9.03132V9.0593V9.08732V9.11538V9.14348V9.17163V9.19982V9.22804V9.25631V9.28461V9.31295V9.34134V9.36975V9.39821V9.42671V9.45524V9.48381V9.51241V9.54105V9.56972V9.59843V9.62717V9.65595V9.68476V9.7136V9.74248V9.77138V9.80032V9.82929V9.85829V9.88733V9.91639V9.94548V9.9746V10.0037V10.0329V10.0621V10.0914V10.1206V10.1499V10.1792V10.2086V10.2379V10.2673V10.2967V10.3262V10.3556V10.3851V10.4146V10.4441V10.4737V10.5033V10.5329V10.5625V10.5921V10.6218V10.6514V10.6811V10.7108V10.7406V10.7703V10.8001V10.8299V10.8597V10.8895V10.9193V10.9491V10.979V11.0089V11.0388V11.0687V11.0986V11.1285V11.1584V11.1884V11.2184V11.2483V11.2783V11.3083V11.3383V11.3683V11.3983V11.4284V11.4584V11.4885V11.5185V11.5486V11.5786V11.6087V11.6388V11.6689V11.699V11.7291V11.7592V11.7892V11.8193V11.8495V11.8796V11.9097V11.9398V11.9699V12V12.0301V12.0602V12.0903V12.1204V12.1505V12.1806V12.2107V12.2408V12.2709V12.301V12.3311V12.3612V12.3913V12.4214V12.4514V12.4815V12.5115V12.5416V12.5716V12.6016V12.6317V12.6617V12.6917V12.7217V12.7517V12.7816V12.8116V12.8416V12.8715V12.9014V12.9313V12.9612V12.9911V13.021V13.0509V13.0807V13.1105V13.1403V13.1701V13.1999V13.2297V13.2594V13.2892V13.3189V13.3486V13.3782V13.4079V13.4375V13.4671V13.4967V13.5263V13.5559V13.5854V13.6149V13.6444V13.6738V13.7033V13.7327V13.7621V13.7914V13.8208V13.8501V13.8794V13.9086V13.9379V13.9671V13.9963V14.0254V14.0545V14.0836V14.1127V14.1417V14.1707V14.1997V14.2286V14.2575V14.2864V14.3152V14.344V14.3728V14.4016V14.4303V14.4589V14.4876V14.5162V14.5448V14.5733V14.6018V14.6302V14.6587V14.687V14.7154V14.7437V14.772V14.8002V14.8284V14.8565V14.8846V14.9127V14.9407V14.9687V14.9966V15.0245V15.0524V15.0802V15.1079V15.1356V15.1633V15.1909V15.2185V15.246V15.2735V15.301V15.3284V15.3557V15.383V15.4102V15.4374V15.4646V15.4917V15.5187V15.5457V15.5727V15.5996V15.6264V15.6532V15.6799V15.7066V15.7332V15.7598V15.7863V15.8128V15.8392V15.8655V15.8918V15.918V15.9442V15.9703V15.9964V16.0224V16.0484V16.0742V16.1001V16.1258V16.1515V16.1772V16.2027V16.2283V16.2537V16.2791V16.3044V16.3297V16.3549V16.38V16.4051V16.4301V16.4551V16.4799V16.5047V16.5295V16.5542V16.5788V16.6033V16.6278V16.6522V16.6765V16.7008V16.7249V16.7491V16.7731V16.7971V16.821V16.8448V16.8686V16.8922V16.9159V16.9394V16.9628V16.9862V17.0095V17.0328V17.0559V17.079V17.102V17.1249V17.1478V17.1706V17.1932V17.2159V17.2384V17.2608V17.2832V17.3055V17.3277V17.3498V17.3719V17.3938V17.4157V17.4375V17.4592V17.4808V17.5024V17.5238V17.5452V17.5665V17.5877V17.6088V17.6298V17.6507V17.6716V17.6923V17.713V17.7336V17.7541V17.7745V17.7948V17.815V17.8351V17.8551V17.8751V17.8949V17.9147V17.9343V17.9539V17.9734V17.9928V18.012V18.0312V18.0503V18.0693V18.0882V18.107V18.1257V18.1443V18.1628V18.1812V18.1995V18.2177V18.2358V18.2538V18.2717V18.2895V18.3072V18.3248V18.3423V18.3597V18.377V18.3941V18.4112V18.4282V18.4451V18.4618V18.4785V18.495V18.5114V18.5278C23.1875 19.368 23.1398 19.9372 23.0612 20.3232C22.9822 20.7112 22.8903 20.8207 22.8747 20.8373C22.8691 20.8432 22.864 20.848 22.8477 20.8556C22.8265 20.8656 22.7801 20.883 22.6894 20.8986C22.4824 20.9342 22.2108 20.9375 21.75 20.9375C21.282 20.9375 21.007 20.9342 20.7984 20.8985C20.7071 20.8829 20.6613 20.8655 20.6412 20.856C20.6261 20.8489 20.6225 20.8451 20.6182 20.8405C20.6044 20.8258 20.5136 20.7177 20.4359 20.3276C20.3587 19.94 20.3125 19.3695 20.3125 18.5278V5.47222ZM21.75 0.9375C20.5421 0.9375 19.301 1.06518 18.6514 2.1478C18.3682 2.61986 18.2735 3.16436 18.2304 3.66708C18.1875 4.16845 18.1875 4.77089 18.1875 5.43301V5.43303V5.47222V18.5278C18.1875 19.4222 18.2345 20.1538 18.3518 20.7427C18.4686 21.3291 18.6737 21.8721 19.0656 22.2914C19.4772 22.7318 19.9793 22.9141 20.4396 22.993C20.8469 23.0628 21.3017 23.0626 21.6996 23.0625L21.75 23.0625L21.7996 23.0625C22.1915 23.0626 22.6433 23.0628 23.0497 22.9929C23.5086 22.9139 24.0091 22.732 24.4212 22.2947C24.8146 21.8772 25.0237 21.3357 25.1435 20.7471C25.2637 20.1566 25.3125 19.4237 25.3125 18.5278V18.5114V18.495V18.4785V18.4618V18.4451V18.4282V18.4112V18.3941V18.377V18.3597V18.3423V18.3248V18.3072V18.2895V18.2717V18.2538V18.2358V18.2177V18.1995V18.1812V18.1628V18.1443V18.1257V18.107V18.0882V18.0693V18.0503V18.0312V18.012V17.9928V17.9734V17.9539V17.9343V17.9147V17.8949V17.8751V17.8551V17.8351V17.815V17.7948V17.7745V17.7541V17.7336V17.713V17.6923V17.6716V17.6507V17.6298V17.6088V17.5877V17.5665V17.5452V17.5238V17.5024V17.4808V17.4592V17.4375V17.4157V17.3938V17.3719V17.3498V17.3277V17.3055V17.2832V17.2608V17.2384V17.2159V17.1932V17.1706V17.1478V17.1249V17.102V17.079V17.0559V17.0328V17.0095V16.9862V16.9628V16.9394V16.9159V16.8922V16.8686V16.8448V16.821V16.7971V16.7731V16.7491V16.7249V16.7008V16.6765V16.6522V16.6278V16.6033V16.5788V16.5542V16.5295V16.5047V16.4799V16.4551V16.4301V16.4051V16.38V16.3549V16.3297V16.3044V16.2791V16.2537V16.2283V16.2027V16.1772V16.1515V16.1258V16.1001V16.0742V16.0484V16.0224V15.9964V15.9703V15.9442V15.918V15.8918V15.8655V15.8392V15.8128V15.7863V15.7598V15.7332V15.7066V15.6799V15.6532V15.6264V15.5996V15.5727V15.5457V15.5187V15.4917V15.4646V15.4374V15.4102V15.383V15.3557V15.3284V15.301V15.2735V15.246V15.2185V15.1909V15.1633V15.1356V15.1079V15.0802V15.0524V15.0245V14.9966V14.9687V14.9407V14.9127V14.8846V14.8565V14.8284V14.8002V14.772V14.7437V14.7154V14.687V14.6587V14.6302V14.6018V14.5733V14.5448V14.5162V14.4876V14.4589V14.4303V14.4016V14.3728V14.344V14.3152V14.2864V14.2575V14.2286V14.1997V14.1707V14.1417V14.1127V14.0836V14.0545V14.0254V13.9963V13.9671V13.9379V13.9086V13.8794V13.8501V13.8208V13.7914V13.7621V13.7327V13.7033V13.6738V13.6444V13.6149V13.5854V13.5559V13.5263V13.4967V13.4671V13.4375V13.4079V13.3782V13.3486V13.3189V13.2892V13.2594V13.2297V13.1999V13.1701V13.1403V13.1105V13.0807V13.0509V13.021V12.9911V12.9612V12.9313V12.9014V12.8715V12.8416V12.8116V12.7816V12.7517V12.7217V12.6917V12.6617V12.6317V12.6016V12.5716V12.5416V12.5115V12.4815V12.4514V12.4214V12.3913V12.3612V12.3311V12.301V12.2709V12.2408V12.2107V12.1806V12.1505V12.1204V12.0903V12.0602V12.0301V12V11.9699V11.9398V11.9097V11.8796V11.8495V11.8193V11.7892V11.7592V11.7291V11.699V11.6689V11.6388V11.6087V11.5786V11.5486V11.5185V11.4885V11.4584V11.4284V11.3983V11.3683V11.3383V11.3083V11.2783V11.2483V11.2184V11.1884V11.1584V11.1285V11.0986V11.0687V11.0388V11.0089V10.979V10.9491V10.9193V10.8895V10.8597V10.8299V10.8001V10.7703V10.7406V10.7108V10.6811V10.6514V10.6218V10.5921V10.5625V10.5329V10.5033V10.4737V10.4441V10.4146V10.3851V10.3556V10.3262V10.2967V10.2673V10.2379V10.2086V10.1792V10.1499V10.1206V10.0914V10.0621V10.0329V10.0037V9.9746V9.94548V9.91639V9.88733V9.85829V9.82929V9.80032V9.77138V9.74248V9.7136V9.68476V9.65595V9.62717V9.59843V9.56972V9.54105V9.51241V9.48381V9.45524V9.42671V9.39821V9.36975V9.34134V9.31295V9.28461V9.25631V9.22804V9.19982V9.17163V9.14348V9.11538V9.08732V9.0593V9.03132V9.00338V8.97549V8.94764V8.91984V8.89207V8.86436V8.83669V8.80906V8.78148V8.75395V8.72646V8.69902V8.67163V8.64429V8.617V8.58975V8.56255V8.53541V8.50831V8.48127V8.45427V8.42733V8.40044V8.3736V8.34681V8.32008V8.2934V8.26678V8.24021V8.21369V8.18723V8.16083V8.13448V8.10819V8.08195V8.05577V8.02965V8.00359V7.97759V7.95165V7.92576V7.89994V7.87418V7.84847V7.82283V7.79725V7.77173V7.74628V7.72088V7.69556V7.67029V7.64509V7.61995V7.59488V7.56987V7.54493V7.52006V7.49525V7.47051V7.44584V7.42123V7.3967V7.37223V7.34783V7.3235V7.29925V7.27506V7.25094V7.2269V7.20292V7.17902V7.15519V7.13143V7.10775V7.08414V7.06061V7.03715V7.01376V6.99046V6.96722V6.94407V6.92099V6.89798V6.87506V6.85221V6.82944V6.80676V6.78415V6.76162V6.73917V6.7168V6.69451V6.6723V6.65018V6.62813V6.60617V6.5843V6.56251V6.5408V6.51917V6.49763V6.47618V6.45481V6.43353V6.41233V6.39122V6.3702V6.34927V6.32842V6.30767V6.287V6.26642V6.24593V6.22553V6.20523V6.18501V6.16489V6.14485V6.12491V6.10507V6.08531V6.06565V6.04609V6.02662V6.00724V5.98796V5.96877V5.94969V5.93069V5.9118V5.893V5.8743V5.8557V5.8372V5.8188V5.80049V5.78229V5.76419V5.74618V5.72828V5.71049V5.69279V5.67519V5.6577V5.64032V5.62303V5.60585V5.58878V5.57181V5.55494V5.53819V5.52153V5.50499V5.48855V5.47222L25.3125 5.43301C25.3125 4.77089 25.3125 4.16845 25.2696 3.66708C25.2265 3.16436 25.1318 2.61986 24.8486 2.1478C24.199 1.06518 22.9579 0.9375 21.75 0.9375ZM11.5987 8.87495C11.5675 9.15675 11.5662 9.48487 11.5662 9.91667L11.5662 14.5L11.5662 19.0833C11.5662 19.0935 11.5661 19.1037 11.5658 19.1139C11.5348 20.1884 11.7304 20.5515 11.8466 20.6761C11.947 20.7837 12.1995 20.9375 12.9997 20.9375C13.7819 20.9375 14.0421 20.7855 14.1491 20.672C14.268 20.546 14.4678 20.1822 14.4336 19.1174C14.4333 19.1061 14.4331 19.0947 14.4331 19.0833V14.5L14.4331 9.91667C14.4331 9.48487 14.4318 9.15675 14.4006 8.87495C14.3698 8.59723 14.3175 8.45513 14.2721 8.37933L14.2706 8.37675C14.2413 8.3271 14.0853 8.0625 12.9997 8.0625C11.914 8.0625 11.758 8.3271 11.7287 8.37675L11.7272 8.37933C11.6818 8.45513 11.6295 8.59723 11.5987 8.87495ZM9.90423 7.28734C10.5029 6.28784 11.6098 5.9375 12.9997 5.9375C14.3895 5.9375 15.4964 6.28784 16.0951 7.28734C16.3617 7.73237 16.4654 8.21527 16.5126 8.64067C16.5582 9.05124 16.5581 9.49199 16.5581 9.88578L16.5581 9.91667L16.5581 14.5V19.0668C16.5951 20.2866 16.4078 21.3743 15.695 22.1301C14.9669 22.902 13.9424 23.0625 12.9997 23.0625C12.0477 23.0625 11.0192 22.9038 10.2932 22.126C9.58599 21.3684 9.40812 20.2793 9.44124 19.0684L9.44123 14.5L9.44122 9.91667L9.44122 9.88577C9.44119 9.49199 9.44115 9.05123 9.4867 8.64067C9.53388 8.21527 9.63765 7.73237 9.90423 7.28734ZM2.84636 15.1495C2.81359 15.4793 2.8125 15.8772 2.8125 16.4097V19.8679C2.8125 20.4685 2.95772 20.6329 3.02811 20.6924C3.14262 20.7893 3.45256 20.9375 4.25 20.9375C5.02963 20.9375 5.34431 20.7909 5.46506 20.6896C5.54107 20.6258 5.6875 20.4581 5.6875 19.8679V19.859V19.8501V19.8412V19.8324V19.8236V19.8148V19.806V19.7972V19.7885V19.7798V19.771V19.7623V19.7537V19.745V19.7364V19.7277V19.7191V19.7105V19.702V19.6934V19.6849V19.6763V19.6678V19.6593V19.6509V19.6424V19.634V19.6256V19.6172V19.6088V19.6004V19.592V19.5837V19.5754V19.5671V19.5588V19.5505V19.5422V19.534V19.5258V19.5176V19.5094V19.5012V19.493V19.4849V19.4767V19.4686V19.4605V19.4524V19.4444V19.4363V19.4283V19.4202V19.4122V19.4042V19.3963V19.3883V19.3804V19.3724V19.3645V19.3566V19.3487V19.3408V19.333V19.3251V19.3173V19.3095V19.3017V19.2939V19.2861V19.2783V19.2706V19.2629V19.2551V19.2474V19.2397V19.2321V19.2244V19.2168V19.2091V19.2015V19.1939V19.1863V19.1787V19.1711V19.1636V19.1561V19.1485V19.141V19.1335V19.126V19.1185V19.1111V19.1036V19.0962V19.0888V19.0814V19.074V19.0666V19.0592V19.0518V19.0445V19.0371V19.0298V19.0225V19.0152V19.0079V19.0006V18.9934V18.9861V18.9789V18.9717V18.9644V18.9572V18.95V18.9429V18.9357V18.9285V18.9214V18.9142V18.9071V18.9V18.8929V18.8858V18.8787V18.8717V18.8646V18.8576V18.8505V18.8435V18.8365V18.8295V18.8225V18.8155V18.8085V18.8016V18.7946V18.7877V18.7807V18.7738V18.7669V18.76V18.7531V18.7462V18.7394V18.7325V18.7256V18.7188V18.712V18.7051V18.6983V18.6915V18.6847V18.678V18.6712V18.6644V18.6577V18.6509V18.6442V18.6374V18.6307V18.624V18.6173V18.6106V18.6039V18.5973V18.5906V18.5839V18.5773V18.5706V18.564V18.5574V18.5508V18.5442V18.5376V18.531V18.5244V18.5178V18.5112V18.5047V18.4981V18.4916V18.485V18.4785V18.472V18.4655V18.459V18.4525V18.446V18.4395V18.433V18.4265V18.4201V18.4136V18.4072V18.4007V18.3943V18.3879V18.3815V18.375V18.3686V18.3622V18.3558V18.3494V18.3431V18.3367V18.3303V18.324V18.3176V18.3113V18.3049V18.2986V18.2922V18.2859V18.2796V18.2733V18.267V18.2607V18.2544V18.2481V18.2418V18.2355V18.2292V18.223V18.2167V18.2105V18.2042V18.198V18.1917V18.1855V18.1792V18.173V18.1668V18.1606V18.1544V18.1481V18.1419V18.1357V18.1295V18.1234V18.1172V18.111V18.1048V18.0986V18.0925V18.0863V18.0801V18.074V18.0678V18.0617V18.0555V18.0494V18.0433V18.0371V18.031V18.0249V18.0187V18.0126V18.0065V18.0004V17.9943V17.9882V17.9821V17.976V17.9699V17.9638V17.9577V17.9516V17.9455V17.9394V17.9333V17.9273V17.9212V17.9151V17.909V17.903V17.8969V17.8908V17.8848V17.8787V17.8726V17.8666V17.8605V17.8545V17.8484V17.8424V17.8363V17.8303V17.8243V17.8182V17.8122V17.8061V17.8001V17.7941V17.788V17.782V17.776V17.7699V17.7639V17.7579V17.7518V17.7458V17.7398V17.7338V17.7277V17.7217V17.7157V17.7097V17.7036V17.6976V17.6916V17.6856V17.6796V17.6735V17.6675V17.6615V17.6555V17.6495V17.6434V17.6374V17.6314V17.6254V17.6193V17.6133V17.6073V17.6013V17.5953V17.5892V17.5832V17.5772V17.5712V17.5651V17.5591V17.5531V17.547V17.541V17.535V17.5289V17.5229V17.5169V17.5108V17.5048V17.4988V17.4927V17.4867V17.4806V17.4746V17.4685V17.4625V17.4564V17.4504V17.4443V17.4383V17.4322V17.4261V17.4201V17.414V17.4079V17.4019V17.3958V17.3897V17.3836V17.3776V17.3715V17.3654V17.3593V17.3532V17.3471V17.341V17.3349V17.3288V17.3227V17.3166V17.3105V17.3043V17.2982V17.2921V17.286V17.2798V17.2737V17.2676V17.2614V17.2553V17.2491V17.243V17.2368V17.2307V17.2245V17.2183V17.2121V17.206V17.1998V17.1936V17.1874V17.1812V17.175V17.1688V17.1626V17.1564V17.1502V17.1439V17.1377V17.1315V17.1252V17.119V17.1127V17.1065V17.1002V17.094V17.0877V17.0814V17.0751V17.0689V17.0626V17.0563V17.05V17.0437V17.0373V17.031V17.0247V17.0184V17.012V17.0057V16.9993V16.993V16.9866V16.9802V16.9739V16.9675V16.9611V16.9547V16.9483V16.9419V16.9355V16.929V16.9226V16.9162V16.9097V16.9033V16.8968V16.8904V16.8839V16.8774V16.8709V16.8644V16.8579V16.8514V16.8449V16.8384V16.8319V16.8253V16.8188V16.8122V16.8057V16.7991V16.7925V16.7859V16.7794V16.7728V16.7661V16.7595V16.7529V16.7463V16.7396V16.733V16.7263V16.7196V16.713V16.7063V16.6996V16.6929V16.6862V16.6794V16.6727V16.666V16.6592V16.6525V16.6457V16.6389V16.6321V16.6253V16.6185V16.6117V16.6049V16.5981V16.5912V16.5844V16.5775V16.5706V16.5638V16.5569V16.55V16.5431V16.5361V16.5292V16.5223V16.5153V16.5083V16.5014V16.4944V16.4874V16.4804V16.4734V16.4663V16.4593V16.4522V16.4452V16.4381V16.431V16.4286L5.67885 16.1758V16.1758C5.66503 15.7643 5.65423 15.4425 5.62353 15.1587C5.58667 14.8179 5.53116 14.659 5.48698 14.5816L5.48615 14.5798C5.47489 14.5546 5.36667 14.3125 4.25 14.3125C3.12845 14.3125 2.99785 14.5573 2.97987 14.591L2.9785 14.5935C2.9354 14.6668 2.87906 14.8204 2.84636 15.1495ZM1.1465 13.5167C1.75932 12.4741 2.9065 12.1875 4.25 12.1875C5.59596 12.1875 6.73219 12.4758 7.33279 13.5287C7.59191 13.9829 7.68804 14.4848 7.73621 14.9302C7.77623 15.3002 7.79006 15.7191 7.80366 16.1308C7.80632 16.2116 7.80898 16.2921 7.81183 16.3719L7.81219 16.384L7.8125 16.4097V16.4168V16.4239V16.431V16.4381V16.4452V16.4522V16.4593V16.4663V16.4734V16.4804V16.4874V16.4944V16.5014V16.5083V16.5153V16.5223V16.5292V16.5361V16.5431V16.55V16.5569V16.5638V16.5706V16.5775V16.5844V16.5912V16.5981V16.6049V16.6117V16.6185V16.6253V16.6321V16.6389V16.6457V16.6525V16.6592V16.666V16.6727V16.6794V16.6862V16.6929V16.6996V16.7063V16.713V16.7196V16.7263V16.733V16.7396V16.7463V16.7529V16.7595V16.7661V16.7728V16.7794V16.7859V16.7925V16.7991V16.8057V16.8122V16.8188V16.8253V16.8319V16.8384V16.8449V16.8514V16.8579V16.8644V16.8709V16.8774V16.8839V16.8904V16.8968V16.9033V16.9097V16.9162V16.9226V16.929V16.9355V16.9419V16.9483V16.9547V16.9611V16.9675V16.9739V16.9802V16.9866V16.993V16.9993V17.0057V17.012V17.0184V17.0247V17.031V17.0373V17.0437V17.05V17.0563V17.0626V17.0689V17.0751V17.0814V17.0877V17.094V17.1002V17.1065V17.1127V17.119V17.1252V17.1315V17.1377V17.1439V17.1502V17.1564V17.1626V17.1688V17.175V17.1812V17.1874V17.1936V17.1998V17.206V17.2121V17.2183V17.2245V17.2307V17.2368V17.243V17.2491V17.2553V17.2614V17.2676V17.2737V17.2798V17.286V17.2921V17.2982V17.3043V17.3105V17.3166V17.3227V17.3288V17.3349V17.341V17.3471V17.3532V17.3593V17.3654V17.3715V17.3776V17.3836V17.3897V17.3958V17.4019V17.4079V17.414V17.4201V17.4261V17.4322V17.4383V17.4443V17.4504V17.4564V17.4625V17.4685V17.4746V17.4806V17.4867V17.4927V17.4988V17.5048V17.5108V17.5169V17.5229V17.5289V17.535V17.541V17.547V17.5531V17.5591V17.5651V17.5712V17.5772V17.5832V17.5892V17.5953V17.6013V17.6073V17.6133V17.6193V17.6254V17.6314V17.6374V17.6434V17.6495V17.6555V17.6615V17.6675V17.6735V17.6796V17.6856V17.6916V17.6976V17.7036V17.7097V17.7157V17.7217V17.7277V17.7338V17.7398V17.7458V17.7518V17.7579V17.7639V17.7699V17.776V17.782V17.788V17.7941V17.8001V17.8061V17.8122V17.8182V17.8243V17.8303V17.8363V17.8424V17.8484V17.8545V17.8605V17.8666V17.8726V17.8787V17.8848V17.8908V17.8969V17.903V17.909V17.9151V17.9212V17.9273V17.9333V17.9394V17.9455V17.9516V17.9577V17.9638V17.9699V17.976V17.9821V17.9882V17.9943V18.0004V18.0065V18.0126V18.0187V18.0249V18.031V18.0371V18.0433V18.0494V18.0555V18.0617V18.0678V18.074V18.0801V18.0863V18.0925V18.0986V18.1048V18.111V18.1172V18.1234V18.1295V18.1357V18.1419V18.1481V18.1544V18.1606V18.1668V18.173V18.1792V18.1855V18.1917V18.198V18.2042V18.2105V18.2167V18.223V18.2292V18.2355V18.2418V18.2481V18.2544V18.2607V18.267V18.2733V18.2796V18.2859V18.2922V18.2986V18.3049V18.3113V18.3176V18.324V18.3303V18.3367V18.3431V18.3494V18.3558V18.3622V18.3686V18.375V18.3815V18.3879V18.3943V18.4007V18.4072V18.4136V18.4201V18.4265V18.433V18.4395V18.446V18.4525V18.459V18.4655V18.472V18.4785V18.485V18.4916V18.4981V18.5047V18.5112V18.5178V18.5244V18.531V18.5376V18.5442V18.5508V18.5574V18.564V18.5706V18.5773V18.5839V18.5906V18.5973V18.6039V18.6106V18.6173V18.624V18.6307V18.6374V18.6442V18.6509V18.6577V18.6644V18.6712V18.678V18.6847V18.6915V18.6983V18.7051V18.712V18.7188V18.7256V18.7325V18.7394V18.7462V18.7531V18.76V18.7669V18.7738V18.7807V18.7877V18.7946V18.8016V18.8085V18.8155V18.8225V18.8295V18.8365V18.8435V18.8505V18.8576V18.8646V18.8717V18.8787V18.8858V18.8929V18.9V18.9071V18.9142V18.9214V18.9285V18.9357V18.9429V18.95V18.9572V18.9644V18.9717V18.9789V18.9861V18.9934V19.0006V19.0079V19.0152V19.0225V19.0298V19.0371V19.0445V19.0518V19.0592V19.0666V19.074V19.0814V19.0888V19.0962V19.1036V19.1111V19.1185V19.126V19.1335V19.141V19.1485V19.1561V19.1636V19.1711V19.1787V19.1863V19.1939V19.2015V19.2091V19.2168V19.2244V19.2321V19.2397V19.2474V19.2551V19.2629V19.2706V19.2783V19.2861V19.2939V19.3017V19.3095V19.3173V19.3251V19.333V19.3408V19.3487V19.3566V19.3645V19.3724V19.3804V19.3883V19.3963V19.4042V19.4122V19.4202V19.4283V19.4363V19.4444V19.4524V19.4605V19.4686V19.4767V19.4849V19.493V19.5012V19.5094V19.5176V19.5258V19.534V19.5422V19.5505V19.5588V19.5671V19.5754V19.5837V19.592V19.6004V19.6088V19.6172V19.6256V19.634V19.6424V19.6509V19.6593V19.6678V19.6763V19.6849V19.6934V19.702V19.7105V19.7191V19.7277V19.7364V19.745V19.7537V19.7623V19.771V19.7798V19.7885V19.7972V19.806V19.8148V19.8236V19.8324V19.8412V19.8501V19.859V19.8679C7.8125 20.7967 7.57287 21.695 6.83084 22.3176C6.13355 22.9026 5.19823 23.0625 4.25 23.0625C3.29248 23.0625 2.35241 22.9042 1.65567 22.3148C0.9148 21.688 0.687501 20.7863 0.687501 19.8679V16.4097V16.3754V16.3754C0.687478 15.8858 0.687454 15.3853 0.731771 14.9394C0.777184 14.4824 0.877096 13.9751 1.1465 13.5167Z" fill="#1E1E1E"/>
</svg>
