<svg width="27" height="29" viewBox="0 0 27 29" fill="none" xmlns="http://www.w3.org/2000/svg">
<path d="M25 25H1.66667C0.746192 25 0 25.7462 0 26.6667C0 27.5871 0.746192 28.3333 1.66667 28.3333H25C25.9205 28.3333 26.6667 27.5871 26.6667 26.6667C26.6667 25.7462 25.9205 25 25 25Z" fill="#5800D6"/>
<path d="M0 23.3335V26.6668C0 27.5873 0.746192 28.3335 1.66667 28.3335C2.58714 28.3335 3.33333 27.5873 3.33333 26.6668V23.3335C3.33333 22.413 2.58714 21.6668 1.66667 21.6668C0.746192 21.6668 0 22.413 0 23.3335Z" fill="#5800D6"/>
<path d="M23.333 23.3335V26.6668C23.333 27.5873 24.0792 28.3335 24.9997 28.3335C25.9201 28.3335 26.6663 27.5873 26.6663 26.6668V23.3335C26.6663 22.413 25.9201 21.6668 24.9997 21.6668C24.0792 21.6668 23.333 22.413 23.333 23.3335Z" fill="#5800D6"/>
<path d="M13.3337 20.0001C12.9882 20.0027 12.6504 19.8979 12.3671 19.7001L5.70041 15.0001C5.34109 14.7452 5.09731 14.3584 5.02236 13.9243C4.9474 13.4902 5.04737 13.044 5.30041 12.6834C5.42672 12.5032 5.58748 12.3497 5.77342 12.2319C5.95935 12.1141 6.16677 12.0344 6.38371 11.9972C6.60065 11.96 6.82281 11.9661 7.03736 12.0153C7.25191 12.0644 7.4546 12.1555 7.63374 12.2834L13.3337 16.2668L19.0004 12.0001C19.354 11.7349 19.7985 11.621 20.2361 11.6835C20.6737 11.746 21.0685 11.9798 21.3337 12.3334C21.599 12.687 21.7128 13.1315 21.6503 13.5691C21.5878 14.0067 21.354 14.4015 21.0004 14.6668L14.3337 19.6668C14.0452 19.8831 13.6944 20.0001 13.3337 20.0001Z" fill="#5800D6"/>
<path d="M13.3337 16.6667C12.8916 16.6667 12.4677 16.4911 12.1551 16.1785C11.8426 15.8659 11.667 15.442 11.667 15V1.66667C11.667 1.22464 11.8426 0.800716 12.1551 0.488155C12.4677 0.175595 12.8916 0 13.3337 0C13.7757 0 14.1996 0.175595 14.5122 0.488155C14.8247 0.800716 15.0003 1.22464 15.0003 1.66667V15C15.0003 15.442 14.8247 15.8659 14.5122 16.1785C14.1996 16.4911 13.7757 16.6667 13.3337 16.6667Z" fill="#5800D6"/>
</svg>
