<svg width="315" height="54" viewBox="0 0 315 54" fill="none" xmlns="http://www.w3.org/2000/svg">
<path d="M36.5587 46.9879C36.182 46.9895 35.8105 46.8962 35.4753 46.7159L23.4647 40.1143L11.454 46.7159C11.064 46.9312 10.6243 47.0273 10.1848 46.9933C9.74537 46.9593 9.32383 46.7965 8.9681 46.5235C8.61238 46.2505 8.33675 45.8782 8.17254 45.4489C8.00833 45.0196 7.96214 44.5505 8.03921 44.095L10.3942 30.1748L0.691508 20.2847C0.388786 19.9676 0.17404 19.5699 0.0703155 19.1343C-0.0334092 18.6987 -0.0221968 18.2416 0.10275 17.8122C0.239247 17.3728 0.490332 16.9823 0.827511 16.6852C1.16469 16.388 1.57446 16.196 2.01033 16.1309L15.434 14.0787L21.3451 1.39477C21.538 0.976738 21.8391 0.624191 22.2139 0.377512C22.5888 0.130833 23.0223 0 23.4647 0C23.9071 0 24.3405 0.130833 24.7154 0.377512C25.0903 0.624191 25.3914 0.976738 25.5842 1.39477L31.566 14.054L44.9897 16.1062C45.4255 16.1712 45.8353 16.3633 46.1725 16.6604C46.5097 16.9576 46.7608 17.3481 46.8973 17.7875C47.0222 18.2169 47.0334 18.674 46.9297 19.1095C46.826 19.5451 46.6112 19.9429 46.3085 20.26L36.6058 30.1501L38.9608 44.0703C39.0449 44.5338 39.0008 45.013 38.8339 45.4511C38.667 45.8892 38.3842 46.268 38.0188 46.5428C37.5923 46.8566 37.0788 47.0131 36.5587 46.9879ZM23.4647 34.8726C23.8422 34.8626 24.2156 34.9563 24.548 35.1445L33.4265 40.0896L31.7308 29.6803C31.665 29.2828 31.6929 28.8745 31.8119 28.4909C31.931 28.1074 32.1376 27.7602 32.4138 27.4798L39.4789 20.2353L29.5878 18.7023C29.225 18.6257 28.8846 18.4604 28.5941 18.2198C28.3036 17.9792 28.0712 17.6702 27.9157 17.3177L23.4647 8.04582L19.0137 17.3177C18.8433 17.673 18.5937 17.9799 18.2862 18.2124C17.9788 18.4448 17.6224 18.5959 17.2474 18.6529L7.35625 20.1858L14.4213 27.4303C14.6975 27.7108 14.9042 28.0579 15.0232 28.4415C15.1423 28.8251 15.1701 29.2334 15.1043 29.6308L13.4087 39.9165L22.2872 34.9715C22.6634 34.8246 23.071 34.7904 23.4647 34.8726Z" fill="#676262"/>
<path d="M103.559 46.9879C103.182 46.9895 102.811 46.8962 102.475 46.7159L90.4647 40.1143L78.454 46.7159C78.064 46.9312 77.6243 47.0273 77.1848 46.9933C76.7454 46.9593 76.3238 46.7965 75.9681 46.5235C75.6124 46.2505 75.3367 45.8782 75.1725 45.4489C75.0083 45.0196 74.9621 44.5505 75.0392 44.095L77.3942 30.1748L67.6915 20.2847C67.3888 19.9676 67.174 19.5699 67.0703 19.1343C66.9666 18.6987 66.9778 18.2417 67.1027 17.8122C67.2392 17.3728 67.4903 16.9823 67.8275 16.6852C68.1647 16.388 68.5745 16.196 69.0103 16.1309L82.434 14.0787L88.3451 1.39477C88.538 0.976738 88.8391 0.624191 89.2139 0.377512C89.5888 0.130833 90.0223 0 90.4647 0C90.9071 0 91.3405 0.130833 91.7154 0.377512C92.0903 0.624191 92.3914 0.976738 92.5842 1.39477L98.566 14.054L111.99 16.1062C112.426 16.1712 112.835 16.3633 113.172 16.6604C113.51 16.9576 113.761 17.3481 113.897 17.7875C114.022 18.2169 114.033 18.674 113.93 19.1095C113.826 19.5451 113.611 19.9429 113.308 20.26L103.606 30.1501L105.961 44.0703C106.045 44.5338 106.001 45.013 105.834 45.4511C105.667 45.8892 105.384 46.268 105.019 46.5428C104.592 46.8566 104.079 47.0131 103.559 46.9879ZM90.4647 34.8726C90.8422 34.8626 91.2156 34.9563 91.548 35.1445L100.426 40.0896L98.7308 29.6803C98.6651 29.2828 98.6929 28.8745 98.8119 28.4909C98.931 28.1074 99.1376 27.7602 99.4138 27.4798L106.479 20.2353L96.5878 18.7023C96.225 18.6257 95.8846 18.4604 95.5941 18.2198C95.3036 17.9792 95.0712 17.6702 94.9157 17.3177L90.4647 8.04582L86.0137 17.3177C85.8433 17.673 85.5937 17.9799 85.2862 18.2124C84.9788 18.4448 84.6224 18.5959 84.2474 18.6529L74.3563 20.1859L81.4213 27.4303C81.6975 27.7108 81.9042 28.0579 82.0232 28.4415C82.1423 28.8251 82.1701 29.2334 82.1043 29.6308L80.4087 39.9165L89.2872 34.9715C89.6634 34.8246 90.071 34.7904 90.4647 34.8726Z" fill="#676262"/>
<path d="M170.559 46.9879C170.182 46.9895 169.811 46.8962 169.475 46.7159L157.465 40.1143L145.454 46.7159C145.064 46.9312 144.624 47.0273 144.185 46.9933C143.745 46.9593 143.324 46.7965 142.968 46.5235C142.612 46.2505 142.337 45.8782 142.173 45.4489C142.008 45.0196 141.962 44.5505 142.039 44.095L144.394 30.1748L134.692 20.2847C134.389 19.9676 134.174 19.5699 134.07 19.1343C133.967 18.6987 133.978 18.2417 134.103 17.8122C134.239 17.3728 134.49 16.9823 134.828 16.6852C135.165 16.388 135.574 16.196 136.01 16.1309L149.434 14.0787L155.345 1.39477C155.538 0.976738 155.839 0.624191 156.214 0.377512C156.589 0.130833 157.022 0 157.465 0C157.907 0 158.341 0.130833 158.715 0.377512C159.09 0.624191 159.391 0.976738 159.584 1.39477L165.566 14.054L178.99 16.1062C179.426 16.1712 179.835 16.3633 180.172 16.6604C180.51 16.9576 180.761 17.3481 180.897 17.7875C181.022 18.2169 181.033 18.674 180.93 19.1095C180.826 19.5451 180.611 19.9429 180.308 20.26L170.606 30.1501L172.961 44.0703C173.045 44.5338 173.001 45.013 172.834 45.4511C172.667 45.8892 172.384 46.268 172.019 46.5428C171.592 46.8566 171.079 47.0131 170.559 46.9879ZM157.465 34.8726C157.842 34.8626 158.216 34.9563 158.548 35.1445L167.426 40.0896L165.731 29.6803C165.665 29.2828 165.693 28.8745 165.812 28.4909C165.931 28.1074 166.138 27.7602 166.414 27.4798L173.479 20.2353L163.588 18.7023C163.225 18.6257 162.885 18.4604 162.594 18.2198C162.304 17.9792 162.071 17.6702 161.916 17.3177L157.465 8.04582L153.014 17.3177C152.843 17.673 152.594 17.9799 152.286 18.2124C151.979 18.4448 151.622 18.5959 151.247 18.6529L141.356 20.1859L148.421 27.4303C148.698 27.7108 148.904 28.0579 149.023 28.4415C149.142 28.8251 149.17 29.2334 149.104 29.6308L147.409 39.9165L156.287 34.9715C156.663 34.8246 157.071 34.7904 157.465 34.8726Z" fill="#676262"/>
<path d="M237.559 46.9879C237.182 46.9895 236.811 46.8962 236.475 46.7159L224.465 40.1143L212.454 46.7159C212.064 46.9312 211.624 47.0273 211.185 46.9933C210.745 46.9593 210.324 46.7965 209.968 46.5235C209.612 46.2505 209.337 45.8782 209.173 45.4489C209.008 45.0196 208.962 44.5505 209.039 44.095L211.394 30.1748L201.692 20.2847C201.389 19.9676 201.174 19.5699 201.07 19.1343C200.967 18.6987 200.978 18.2417 201.103 17.8122C201.239 17.3728 201.49 16.9823 201.828 16.6852C202.165 16.388 202.574 16.196 203.01 16.1309L216.434 14.0787L222.345 1.39477C222.538 0.976738 222.839 0.624191 223.214 0.377512C223.589 0.130833 224.022 0 224.465 0C224.907 0 225.341 0.130833 225.715 0.377512C226.09 0.624191 226.391 0.976738 226.584 1.39477L232.566 14.054L245.99 16.1062C246.426 16.1712 246.835 16.3633 247.172 16.6604C247.51 16.9576 247.761 17.3481 247.897 17.7875C248.022 18.2169 248.033 18.674 247.93 19.1095C247.826 19.5451 247.611 19.9429 247.308 20.26L237.606 30.1501L239.961 44.0703C240.045 44.5338 240.001 45.013 239.834 45.4511C239.667 45.8892 239.384 46.268 239.019 46.5428C238.592 46.8566 238.079 47.0131 237.559 46.9879ZM224.465 34.8726C224.842 34.8626 225.216 34.9563 225.548 35.1445L234.426 40.0896L232.731 29.6803C232.665 29.2828 232.693 28.8745 232.812 28.4909C232.931 28.1074 233.138 27.7602 233.414 27.4798L240.479 20.2353L230.588 18.7023C230.225 18.6257 229.885 18.4604 229.594 18.2198C229.304 17.9792 229.071 17.6702 228.916 17.3177L224.465 8.04582L220.014 17.3177C219.843 17.673 219.594 17.9799 219.286 18.2124C218.979 18.4448 218.622 18.5959 218.247 18.6529L208.356 20.1859L215.421 27.4303C215.698 27.7108 215.904 28.0579 216.023 28.4415C216.142 28.8251 216.17 29.2334 216.104 29.6308L214.409 39.9165L223.287 34.9715C223.663 34.8246 224.071 34.7904 224.465 34.8726Z" fill="#676262"/>
<path d="M304.559 46.9879C304.182 46.9895 303.811 46.8962 303.475 46.7159L291.465 40.1143L279.454 46.7159C279.064 46.9312 278.624 47.0273 278.185 46.9933C277.745 46.9593 277.324 46.7965 276.968 46.5235C276.612 46.2505 276.337 45.8782 276.173 45.4489C276.008 45.0196 275.962 44.5505 276.039 44.095L278.394 30.1748L268.692 20.2847C268.389 19.9676 268.174 19.5699 268.07 19.1343C267.967 18.6987 267.978 18.2417 268.103 17.8122C268.239 17.3728 268.49 16.9823 268.828 16.6852C269.165 16.388 269.574 16.196 270.01 16.1309L283.434 14.0787L289.345 1.39477C289.538 0.976738 289.839 0.624191 290.214 0.377512C290.589 0.130833 291.022 0 291.465 0C291.907 0 292.341 0.130833 292.715 0.377512C293.09 0.624191 293.391 0.976738 293.584 1.39477L299.566 14.054L312.99 16.1062C313.426 16.1712 313.835 16.3633 314.172 16.6604C314.51 16.9576 314.761 17.3481 314.897 17.7875C315.022 18.2169 315.033 18.674 314.93 19.1095C314.826 19.5451 314.611 19.9429 314.308 20.26L304.606 30.1501L306.961 44.0703C307.045 44.5338 307.001 45.013 306.834 45.4511C306.667 45.8892 306.384 46.268 306.019 46.5428C305.592 46.8566 305.079 47.0131 304.559 46.9879ZM291.465 34.8726C291.842 34.8626 292.216 34.9563 292.548 35.1445L301.426 40.0896L299.731 29.6803C299.665 29.2828 299.693 28.8745 299.812 28.4909C299.931 28.1074 300.138 27.7602 300.414 27.4798L307.479 20.2353L297.588 18.7023C297.225 18.6257 296.885 18.4604 296.594 18.2198C296.304 17.9792 296.071 17.6702 295.916 17.3177L291.465 8.04582L287.014 17.3177C286.843 17.673 286.594 17.9799 286.286 18.2124C285.979 18.4448 285.622 18.5959 285.247 18.6529L275.356 20.1859L282.421 27.4303C282.698 27.7108 282.904 28.0579 283.023 28.4415C283.142 28.8251 283.17 29.2334 283.104 29.6308L281.409 39.9165L290.287 34.9715C290.663 34.8246 291.071 34.7904 291.465 34.8726Z" fill="#676262"/>
</svg>
