<svg width="30" height="30" viewBox="0 0 30 30" fill="none" xmlns="http://www.w3.org/2000/svg">
<path d="M27.2727 21.8182V9.54545H8.18182V21.8182H27.2727ZM27.2727 2.72727C27.996 2.72727 28.6897 3.01461 29.2012 3.52607C29.7127 4.03754 30 4.73123 30 5.45455V21.8182C30 22.5415 29.7127 23.2352 29.2012 23.7467C28.6897 24.2581 27.996 24.5455 27.2727 24.5455H8.18182C7.4585 24.5455 6.76481 24.2581 6.25335 23.7467C5.74188 23.2352 5.45455 22.5415 5.45455 21.8182V5.45455C5.45455 4.73123 5.74188 4.03754 6.25335 3.52607C6.76481 3.01461 7.4585 2.72727 8.18182 2.72727H9.54545V0H12.2727V2.72727H23.1818V0H25.9091V2.72727H27.2727ZM22.5409 13.7182L16.4864 19.7727L12.8318 16.1182L14.2773 14.6727L16.4864 16.8818L21.0955 12.2727L22.5409 13.7182ZM2.72727 27.2727H21.8182V30H2.72727C2.00395 30 1.31026 29.7127 0.7988 29.2012C0.287337 28.6897 0 27.996 0 27.2727V10.9091H2.72727V27.2727Z" fill="#1E1E1E"/>
</svg>
