<svg width="21" height="20" viewBox="0 0 21 20" fill="none" xmlns="http://www.w3.org/2000/svg">
<path fill-rule="evenodd" clip-rule="evenodd" d="M10.2504 1.7C14.7809 1.7 18.4004 5.31944 18.4004 9.85C18.4004 10.8493 18.2184 11.8414 17.8612 12.7343C17.7782 12.9419 17.7802 13.1738 17.867 13.3798L18.9702 16H15.8504C15.6574 16 15.4701 16.0657 15.3194 16.1863C13.9551 17.2777 12.139 18 10.2504 18C5.71983 18 2.10039 14.3806 2.10039 9.85C2.10039 5.31944 5.71983 1.7 10.2504 1.7ZM20.1004 9.85C20.1004 4.38056 15.7198 0 10.2504 0C4.78095 0 0.400391 4.38056 0.400391 9.85C0.400391 15.3194 4.78095 19.7 10.2504 19.7C12.4503 19.7 14.5347 18.9049 16.141 17.7H19.9492C20.7001 17.7 21.2083 16.9346 20.9169 16.2425L19.5652 13.0322C19.9237 12.0182 20.1004 10.9312 20.1004 9.85ZM6.25041 9.20001C5.61528 9.20001 5.10041 9.71488 5.10041 10.35C5.10041 10.9851 5.61528 11.5 6.25041 11.5C6.88554 11.5 7.40041 10.9851 7.40041 10.35C7.40041 9.71488 6.88554 9.20001 6.25041 9.20001ZM10.2504 9.20001C9.61528 9.20001 9.10041 9.71488 9.10041 10.35C9.10041 10.9851 9.61528 11.5 10.2504 11.5C10.8855 11.5 11.4004 10.9851 11.4004 10.35C11.4004 9.71488 10.8855 9.20001 10.2504 9.20001ZM14.2504 9.20001C13.6153 9.20001 13.1004 9.71488 13.1004 10.35C13.1004 10.9851 13.6153 11.5 14.2504 11.5C14.8855 11.5 15.4004 10.9851 15.4004 10.35C15.4004 9.71488 14.8855 9.20001 14.2504 9.20001Z" fill="#5800D6"/>
</svg>
