<svg width="28" height="30" viewBox="0 0 28 30" fill="none" xmlns="http://www.w3.org/2000/svg">
<path d="M13.7083 13.4167C15.2576 13.4167 16.7721 13.0452 18.0603 12.3493C19.3485 11.6534 20.3525 10.6643 20.9454 9.507C21.5383 8.34973 21.6934 7.07631 21.3911 5.84776C21.0889 4.61922 20.3428 3.49073 19.2473 2.60499C18.1518 1.71926 16.7561 1.11607 15.2365 0.871696C13.717 0.627323 12.142 0.752744 10.7106 1.2321C9.27929 1.71145 8.05589 2.52321 7.19516 3.56472C6.33442 4.60624 5.875 5.83072 5.875 7.08334C5.875 8.76304 6.70029 10.3739 8.16933 11.5617C9.63836 12.7494 11.6308 13.4167 13.7083 13.4167Z" fill="black"/>
<path d="M25.4583 29.2502C25.9777 29.2502 26.4758 29.0833 26.8431 28.7864C27.2104 28.4895 27.4167 28.0868 27.4167 27.6668C27.4167 24.7273 25.9724 21.9083 23.4016 19.8297C20.8308 17.7512 17.344 16.5835 13.7083 16.5835C10.0727 16.5835 6.58589 17.7512 4.01508 19.8297C1.44427 21.9083 5.41758e-08 24.7273 0 27.6668C0 28.0868 0.206324 28.4895 0.573583 28.7864C0.940842 29.0833 1.43895 29.2502 1.95833 29.2502H25.4583Z" fill="black"/>
</svg>
