<svg width="184" height="184" viewBox="0 0 184 184" fill="none" xmlns="http://www.w3.org/2000/svg">
<path d="M132.48 25.76C132.48 24.784 132.868 23.848 133.558 23.1579C134.248 22.4678 135.184 22.0801 136.16 22.08H154.56V3.68001C154.56 2.70401 154.948 1.76799 155.638 1.07786C156.328 0.387723 157.264 8.95019e-06 158.24 8.95019e-06C159.216 8.95019e-06 160.152 0.387723 160.842 1.07786C161.532 1.76799 161.92 2.70401 161.92 3.68001V22.08H180.32C181.296 22.08 182.232 22.4677 182.922 23.1579C183.612 23.848 184 24.784 184 25.76C184 26.736 183.612 27.672 182.922 28.3622C182.232 29.0523 181.296 29.44 180.32 29.44H161.92V47.84C161.92 48.816 161.532 49.752 160.842 50.4422C160.152 51.1323 159.216 51.52 158.24 51.52C157.264 51.52 156.328 51.1323 155.638 50.4422C154.948 49.752 154.56 48.816 154.56 47.84V29.44H136.16C135.184 29.44 134.248 29.0522 133.558 28.3621C132.868 27.672 132.48 26.736 132.48 25.76ZM182.862 77.4929C183.62 82.2915 184 87.142 184 92C184.005 104.807 181.33 117.473 176.147 129.183C170.964 140.894 163.388 151.391 153.905 159.998C153.682 160.263 153.422 160.494 153.134 160.686C136.311 175.701 114.551 184 92.0015 184C69.4523 184 47.6916 175.702 30.8681 160.688C30.5782 160.496 30.3173 160.263 30.0932 159.997C16.3589 147.508 6.7257 131.156 2.46041 113.089C-1.80488 95.0224 -0.502571 76.0879 6.19607 58.7754C12.8947 41.4629 24.676 26.583 39.9908 16.0924C55.3056 5.60187 73.4367 -0.00817907 92 8.95019e-06C96.858 -0.000254801 101.709 0.380202 106.507 1.13788C106.986 1.2117 107.446 1.37938 107.86 1.63128C108.273 1.88319 108.634 2.21437 108.919 2.60581C109.205 2.99725 109.41 3.44125 109.524 3.91231C109.638 4.38338 109.657 4.87224 109.581 5.35083C109.505 5.82943 109.336 6.28834 109.082 6.70122C108.828 7.11409 108.496 7.47281 108.103 7.75678C107.71 8.04076 107.266 8.24439 106.794 8.35599C106.322 8.4676 105.834 8.48498 105.355 8.40713C100.938 7.70976 96.4723 7.35965 92 7.36001C75.2761 7.35171 58.9249 12.3005 45.0123 21.581C31.0996 30.8616 20.2498 44.0575 13.8337 59.5017C7.41746 74.9459 5.72277 91.9453 8.96368 108.352C12.2046 124.759 20.2357 139.837 32.0423 151.682C41.1774 136.384 55.8337 125.175 72.9895 120.365C65.016 116.124 58.6898 109.338 55.0175 101.087C51.3452 92.8354 50.5376 83.5932 52.7233 74.8302C54.909 66.0673 59.9623 58.2869 67.0794 52.7269C74.1965 47.1669 82.9686 44.1467 92 44.1467C101.031 44.1467 109.803 47.1669 116.921 52.7269C124.038 58.2869 129.091 66.0673 131.277 74.8302C133.462 83.5932 132.655 92.8354 128.982 101.087C125.31 109.338 118.984 116.124 111.01 120.365C128.166 125.175 142.823 136.385 151.958 151.682C159.79 143.843 166 134.537 170.235 124.296C174.471 114.056 176.647 103.082 176.64 92C176.64 87.5279 176.29 83.0626 175.593 78.6452C175.44 77.6812 175.676 76.696 176.25 75.9064C176.824 75.1167 177.687 74.5872 178.651 74.4344C179.615 74.2816 180.601 74.518 181.39 75.0916C182.18 75.6652 182.709 76.529 182.862 77.4929ZM92 117.76C98.5505 117.76 104.954 115.818 110.4 112.178C115.847 108.539 120.092 103.366 122.599 97.3145C125.106 91.2626 125.762 84.6033 124.484 78.1786C123.206 71.754 120.051 65.8525 115.419 61.2206C110.787 56.5887 104.886 53.4343 98.4614 52.1564C92.0367 50.8785 85.3774 51.5343 79.3255 54.0411C73.2736 56.5479 68.101 60.793 64.4617 66.2395C60.8224 71.6861 58.88 78.0895 58.88 84.64C58.8899 93.4209 62.3825 101.839 68.5915 108.048C74.8006 114.258 83.2191 117.75 92 117.76ZM92 176.64C111.911 176.657 131.185 169.623 146.404 156.784C140.942 147.169 133.03 139.174 123.474 133.612C113.917 128.05 103.057 125.12 91.9999 125.12C80.9425 125.12 70.0826 128.05 60.526 133.612C50.9694 139.174 43.0574 147.169 37.5956 156.784C52.8145 169.623 72.0887 176.657 92 176.64Z" fill="black" fill-opacity="0.43"/>
</svg>
