<svg width="29" height="30" viewBox="0 0 29 30" fill="none" xmlns="http://www.w3.org/2000/svg">
<path d="M28.1975 9.76172C28.385 10.2715 28.2268 10.8398 27.8225 11.2031L25.2854 13.5117C25.3499 13.998 25.385 14.4961 25.385 15C25.385 15.5039 25.3499 16.002 25.2854 16.4883L27.8225 18.7969C28.2268 19.1602 28.385 19.7285 28.1975 20.2383C27.9397 20.9355 27.6292 21.6035 27.2717 22.248L26.9964 22.7227C26.6096 23.3672 26.176 23.9766 25.7014 24.5508C25.3557 24.9727 24.7815 25.1133 24.2659 24.9492L21.0022 23.9121C20.2171 24.5156 19.3499 25.0195 18.4241 25.4004L17.6917 28.7461C17.5745 29.2793 17.1643 29.7012 16.6253 29.7891C15.8167 29.9238 14.9846 29.9941 14.135 29.9941C13.2854 29.9941 12.4534 29.9238 11.6448 29.7891C11.1057 29.7012 10.6956 29.2793 10.5784 28.7461L9.84596 25.4004C8.92018 25.0195 8.05299 24.5156 7.26784 23.9121L4.01002 24.9551C3.4944 25.1191 2.92018 24.9727 2.57448 24.5566C2.09987 23.9824 1.66627 23.373 1.27956 22.7285L1.00417 22.2539C0.646744 21.6094 0.336197 20.9414 0.0783842 20.2441C-0.109116 19.7344 0.0490873 19.166 0.453384 18.8027L2.99049 16.4941C2.92604 16.002 2.89088 15.5039 2.89088 15C2.89088 14.4961 2.92604 13.998 2.99049 13.5117L0.453384 11.2031C0.0490873 10.8398 -0.109116 10.2715 0.0783842 9.76172C0.336197 9.06445 0.646744 8.39648 1.00417 7.75195L1.27956 7.27734C1.66627 6.63281 2.09987 6.02344 2.57448 5.44922C2.92018 5.02734 3.4944 4.88672 4.01002 5.05078L7.2737 6.08789C8.05885 5.48438 8.92604 4.98047 9.85182 4.59961L10.5842 1.25391C10.7014 0.720703 11.1116 0.298828 11.6506 0.210937C12.4592 0.0703125 13.2913 0 14.1409 0C14.9905 0 15.8225 0.0703125 16.6311 0.205078C17.1702 0.292969 17.5803 0.714844 17.6975 1.24805L18.4299 4.59375C19.3557 4.97461 20.2229 5.47852 21.0081 6.08203L24.2717 5.04492C24.7874 4.88086 25.3616 5.02734 25.7073 5.44336C26.1819 6.01758 26.6155 6.62695 27.0022 7.27148L27.2776 7.74609C27.635 8.39062 27.9456 9.05859 28.2034 9.75586L28.1975 9.76172ZM14.1409 19.6875C15.3841 19.6875 16.5764 19.1936 17.4554 18.3146C18.3345 17.4355 18.8284 16.2432 18.8284 15C18.8284 13.7568 18.3345 12.5645 17.4554 11.6854C16.5764 10.8064 15.3841 10.3125 14.1409 10.3125C12.8977 10.3125 11.7054 10.8064 10.8263 11.6854C9.94724 12.5645 9.45338 13.7568 9.45338 15C9.45338 16.2432 9.94724 17.4355 10.8263 18.3146C11.7054 19.1936 12.8977 19.6875 14.1409 19.6875Z" fill="#1E1E1E"/>
</svg>
