<svg width="25" height="15" viewBox="0 0 25 15" fill="none" xmlns="http://www.w3.org/2000/svg">
<path d="M23.7604 2.85938H1.70665C1.38171 2.85938 1.07007 2.72603 0.8403 2.48868C0.610529 2.25133 0.481445 1.92941 0.481445 1.59375C0.481445 1.25809 0.610529 0.936169 0.8403 0.698818C1.07007 0.461467 1.38171 0.328125 1.70665 0.328125H23.7604C24.0853 0.328125 24.3969 0.461467 24.6267 0.698818C24.8565 0.936169 24.9856 1.25809 24.9856 1.59375C24.9856 1.92941 24.8565 2.25133 24.6267 2.48868C24.3969 2.72603 24.0853 2.85938 23.7604 2.85938ZM19.6763 8.76562H5.79067C5.46573 8.76562 5.15409 8.63228 4.92432 8.39493C4.69455 8.15758 4.56546 7.83566 4.56546 7.5C4.56546 7.16434 4.69455 6.84242 4.92432 6.60507C5.15409 6.36772 5.46573 6.23438 5.79067 6.23438H19.6763C20.0013 6.23438 20.3129 6.36772 20.5427 6.60507C20.7725 6.84242 20.9015 7.16434 20.9015 7.5C20.9015 7.83566 20.7725 8.15758 20.5427 8.39493C20.3129 8.63228 20.0013 8.76562 19.6763 8.76562ZM14.7755 14.6719H10.6915C10.3665 14.6719 10.0549 14.5385 9.82514 14.3012C9.59537 14.0638 9.46629 13.7419 9.46629 13.4062C9.46629 13.0706 9.59537 12.7487 9.82514 12.5113C10.0549 12.274 10.3665 12.1406 10.6915 12.1406H14.7755C15.1005 12.1406 15.4121 12.274 15.6419 12.5113C15.8716 12.7487 16.0007 13.0706 16.0007 13.4062C16.0007 13.7419 15.8716 14.0638 15.6419 14.3012C15.4121 14.5385 15.1005 14.6719 14.7755 14.6719Z" fill="#5800D6"/>
</svg>
