<svg width="26" height="27" viewBox="0 0 26 27" fill="none" xmlns="http://www.w3.org/2000/svg">
<path fill-rule="evenodd" clip-rule="evenodd" d="M6.25706 7.14223C8.24229 7.82344 10.3214 6.45613 10.6908 4.5697C10.9178 3.58926 11.1844 3.16051 11.4488 2.94107C11.7041 2.72926 12.1395 2.5625 13.0854 2.5625C13.8175 2.5625 14.233 2.74662 14.5044 3.00164C14.7962 3.27592 15.0669 3.76839 15.2292 4.65928L15.2292 4.65928L15.2303 4.66486C15.4245 5.69895 16.1364 6.47874 16.9639 6.91013C17.7938 7.34275 18.8349 7.479 19.8164 7.13346C19.8301 7.12865 19.8436 7.12357 19.857 7.11822C20.7985 6.74289 21.3102 6.75031 21.6228 6.85586C21.9301 6.95967 22.2827 7.23851 22.7189 7.97756C23.1648 8.73295 23.2235 9.13601 23.1723 9.40858C23.1187 9.69393 22.8924 10.1159 22.0968 10.7761L22.0823 10.7884C20.4858 12.1623 20.4858 14.5877 22.0823 15.9616L22.0968 15.9739C22.8924 16.6341 23.1187 17.0561 23.1723 17.3414C23.2235 17.614 23.1648 18.017 22.7189 18.7724C22.2852 19.5073 21.9273 19.799 21.6026 19.916C21.2711 20.0354 20.7496 20.0536 19.8112 19.7334C17.9076 19.0669 15.5954 20.2009 15.2274 22.3385C15.0639 23.2882 14.801 23.6639 14.566 23.8459C14.3127 24.0421 13.8713 24.1875 12.9628 24.1875C12.0883 24.1875 11.6383 24.0247 11.3738 23.8126C11.1176 23.6071 10.858 23.2118 10.6971 22.3327C10.326 20.1989 8.01629 19.0675 6.11442 19.7334C5.17597 20.0536 4.65447 20.0354 4.32295 19.916C3.99828 19.799 3.6404 19.5073 3.20666 18.7724C3.20071 18.7624 3.19461 18.7524 3.18834 18.7425C2.80701 18.1426 2.76713 17.7269 2.84786 17.4001C2.93858 17.0328 3.23466 16.5611 3.94622 15.9782L3.96596 15.9616C5.58999 14.564 5.41163 12.1417 3.84789 10.9088C3.13839 10.2134 2.91687 9.77134 2.8654 9.45098C2.81641 9.14607 2.88678 8.73141 3.32028 7.99291C3.71785 7.37226 4.08483 7.10896 4.4443 6.99823C4.83025 6.87933 5.3854 6.88101 6.25706 7.14223ZM13.0854 0.4375C11.9462 0.4375 10.9098 0.626994 10.0918 1.3058C9.28458 1.97565 8.87814 2.968 8.61548 4.1123C8.61231 4.12611 8.60942 4.13997 8.60681 4.15389C8.47424 4.85977 7.63484 5.37456 6.93747 5.12904C6.92253 5.12379 6.90747 5.11886 6.89232 5.11428C5.81293 4.78771 4.77905 4.67157 3.8187 4.9674C2.83174 5.27143 2.09773 5.95488 1.51762 6.86754C1.51135 6.8774 1.50524 6.88737 1.4993 6.89744C0.959601 7.81182 0.601988 8.75916 0.767309 9.78808C0.929496 10.7975 1.559 11.6508 2.4112 12.4759C2.44271 12.5064 2.47608 12.5349 2.51111 12.5613C3.09858 13.0036 3.14319 13.8577 2.58778 14.344C1.7105 15.0651 1.03034 15.8967 0.784853 16.8905C0.529638 17.9238 0.79221 18.9279 1.38542 19.8674C1.93147 20.7885 2.61416 21.5591 3.60274 21.9152C4.58931 22.2706 5.66134 22.1339 6.80553 21.7429L6.80555 21.743L6.81481 21.7397C7.60866 21.4602 8.48165 21.9885 8.60396 22.699L8.60391 22.699L8.60578 22.7093C8.81294 23.8458 9.22757 24.8152 10.0441 25.4702C10.8529 26.119 11.8748 26.3125 12.9628 26.3125C14.0168 26.3125 15.0472 26.161 15.8672 25.526C16.7055 24.8767 17.1171 23.8868 17.3216 22.699C17.4439 21.9885 18.3169 21.4602 19.1108 21.7397L19.1107 21.7397L19.12 21.7429C20.2642 22.1339 21.3363 22.2706 22.3228 21.9152C23.3167 21.5572 24.0014 20.7802 24.5489 19.8526C25.0843 18.9455 25.4549 17.9829 25.2608 16.9492C25.0697 15.9314 24.3797 15.1085 23.4623 14.3457C22.8591 13.8206 22.8591 12.9294 23.4623 12.4043C24.3797 11.6415 25.0697 10.8186 25.2608 9.8008C25.4549 8.76711 25.0843 7.80455 24.5489 6.89744C24.0039 5.97399 23.3139 5.18408 22.3027 4.84258C21.3037 4.50518 20.2289 4.68581 19.094 5.13482C18.73 5.25719 18.3067 5.21373 17.9462 5.02581C17.5788 4.83425 17.3709 4.54628 17.3192 4.27473C17.1134 3.14831 16.7094 2.15773 15.9595 1.45305C15.1883 0.72838 14.1932 0.4375 13.0854 0.4375ZM10.3129 13.375C10.3129 11.8907 11.5161 10.6875 13.0004 10.6875C14.4846 10.6875 15.6879 11.8907 15.6879 13.375C15.6879 14.8593 14.4846 16.0625 13.0004 16.0625C11.5161 16.0625 10.3129 14.8593 10.3129 13.375ZM13.0004 8.5625C10.3425 8.5625 8.18787 10.7171 8.18787 13.375C8.18787 16.0329 10.3425 18.1875 13.0004 18.1875C15.6582 18.1875 17.8129 16.0329 17.8129 13.375C17.8129 10.7171 15.6582 8.5625 13.0004 8.5625Z" fill="#1E1E1E"/>
</svg>
