<svg width="766" height="31" viewBox="0 0 766 31" fill="none" xmlns="http://www.w3.org/2000/svg">
<path fill-rule="evenodd" clip-rule="evenodd" d="M766 15C766 23.2843 759.284 30 751 30C743.049 30 736.543 23.8134 736.032 15.9913L397.993 16.4606C397.75 24.5317 391.13 31 383 31C374.884 31 368.273 24.554 368.008 16.5022L29.969 16.9714C29.4684 24.803 22.9579 31 15 31C6.71573 31 0 24.2843 0 16C0 7.71573 6.71573 1 15 1C22.5963 1 28.8738 6.64667 29.864 13.9716L368.207 13.5019C369.397 6.40668 375.567 1 383 1C390.419 1 396.58 6.38583 397.786 13.4608L736.133 12.9911C737.115 5.65673 743.397 0 751 0C759.284 0 766 6.71573 766 15Z" fill="#EF2A82"/>
</svg>
