<svg width="27" height="32" viewBox="0 0 27 32" fill="none" xmlns="http://www.w3.org/2000/svg">
<path d="M24.5128 10.343H2.8361C2.51671 10.343 2.2104 10.1885 1.98456 9.91334C1.75871 9.63823 1.63184 9.2651 1.63184 8.87603C1.63184 8.48697 1.75871 8.11384 1.98456 7.83872C2.2104 7.56361 2.51671 7.40906 2.8361 7.40906H24.5128C24.8322 7.40906 25.1385 7.56361 25.3644 7.83872C25.5902 8.11384 25.7171 8.48697 25.7171 8.87603C25.7171 9.2651 25.5902 9.63823 25.3644 9.91334C25.1385 10.1885 24.8322 10.343 24.5128 10.343ZM20.4986 17.1889H6.85031C6.53092 17.1889 6.22461 17.0343 5.99876 16.7592C5.77292 16.4841 5.64604 16.111 5.64604 15.7219C5.64604 15.3328 5.77292 14.9597 5.99876 14.6846C6.22461 14.4095 6.53092 14.2549 6.85031 14.2549H20.4986C20.818 14.2549 21.1243 14.4095 21.3502 14.6846C21.576 14.9597 21.7029 15.3328 21.7029 15.7219C21.7029 16.111 21.576 16.4841 21.3502 16.7592C21.1243 17.0343 20.818 17.1889 20.4986 17.1889ZM15.6816 24.0348H11.6674C11.348 24.0348 11.0417 23.8802 10.8158 23.6051C10.59 23.33 10.4631 22.9569 10.4631 22.5678C10.4631 22.1787 10.59 21.8056 10.8158 21.5305C11.0417 21.2554 11.348 21.1008 11.6674 21.1008H15.6816C16.001 21.1008 16.3073 21.2554 16.5331 21.5305C16.7589 21.8056 16.8858 22.1787 16.8858 22.5678C16.8858 22.9569 16.7589 23.33 16.5331 23.6051C16.3073 23.8802 16.001 24.0348 15.6816 24.0348Z" fill="#5800D6"/>
</svg>
