<svg width="30" height="30" viewBox="0 0 30 30" fill="none" xmlns="http://www.w3.org/2000/svg">
<path fill-rule="evenodd" clip-rule="evenodd" d="M22.3125 8.47222C22.3125 7.76088 22.3134 7.24875 22.3477 6.84855C22.3827 6.4398 22.4443 6.28986 22.4736 6.24109C22.4811 6.22851 22.4841 6.22634 22.4881 6.22346L22.4887 6.22302C22.4968 6.21707 22.5311 6.19399 22.618 6.16715C22.8129 6.10702 23.1515 6.0625 23.75 6.0625C24.3485 6.0625 24.6871 6.10702 24.882 6.16715C24.9689 6.19399 25.0032 6.21707 25.0113 6.22302L25.0119 6.22346C25.0159 6.22634 25.0189 6.22851 25.0264 6.24109C25.0557 6.28986 25.1173 6.4398 25.1523 6.84855C25.1866 7.24875 25.1875 7.76088 25.1875 8.47222V8.48855V8.50499V8.52153V8.53819V8.55494V8.57181V8.58878V8.60585V8.62303V8.64032V8.6577V8.67519V8.69279V8.71049V8.72828V8.74618V8.76419V8.78229V8.80049V8.8188V8.8372V8.8557V8.8743V8.893V8.9118V8.93069V8.94969V8.96877V8.98796V9.00724V9.02662V9.04609V9.06565V9.08531V9.10507V9.12491V9.14485V9.16489V9.18501V9.20523V9.22553V9.24593V9.26642V9.287V9.30766V9.32842V9.34927V9.3702V9.39122V9.41233V9.43353V9.45481V9.47618V9.49763V9.51917V9.5408V9.56251V9.5843V9.60617V9.62813V9.65018V9.6723V9.69451V9.7168V9.73917V9.76162V9.78415V9.80676V9.82944V9.85221V9.87506V9.89798V9.92099V9.94407V9.96722V9.99046V10.0138V10.0371V10.0606V10.0841V10.1078V10.1314V10.1552V10.179V10.2029V10.2269V10.2509V10.2751V10.2992V10.3235V10.3478V10.3722V10.3967V10.4212V10.4458V10.4705V10.4953V10.5201V10.5449V10.5699V10.5949V10.62V10.6451V10.6703V10.6956V10.7209V10.7463V10.7717V10.7973V10.8228V10.8485V10.8742V10.8999V10.9258V10.9516V10.9776V11.0036V11.0297V11.0558V11.082V11.1082V11.1345V11.1608V11.1872V11.2137V11.2402V11.2668V11.2934V11.3201V11.3468V11.3736V11.4004V11.4273V11.4543V11.4813V11.5083V11.5354V11.5626V11.5897V11.617V11.6443V11.6716V11.699V11.7265V11.7539V11.7815V11.8091V11.8367V11.8644V11.8921V11.9198V11.9476V11.9755V12.0034V12.0313V12.0593V12.0873V12.1154V12.1435V12.1716V12.1998V12.228V12.2563V12.2846V12.313V12.3413V12.3698V12.3982V12.4267V12.4552V12.4838V12.5124V12.541V12.5697V12.5984V12.6272V12.6559V12.6848V12.7136V12.7425V12.7714V12.8003V12.8293V12.8583V12.8873V12.9164V12.9455V12.9746V13.0037V13.0329V13.0621V13.0914V13.1206V13.1499V13.1792V13.2086V13.2379V13.2673V13.2967V13.3262V13.3556V13.3851V13.4146V13.4441V13.4737V13.5033V13.5329V13.5625V13.5921V13.6218V13.6514V13.6811V13.7108V13.7406V13.7703V13.8001V13.8299V13.8597V13.8895V13.9193V13.9491V13.979V14.0089V14.0388V14.0687V14.0986V14.1285V14.1584V14.1884V14.2184V14.2483V14.2783V14.3083V14.3383V14.3683V14.3983V14.4284V14.4584V14.4885V14.5185V14.5486V14.5786V14.6087V14.6388V14.6689V14.699V14.7291V14.7591V14.7892V14.8193V14.8495V14.8796V14.9097V14.9398V14.9699V15V15.0301V15.0602V15.0903V15.1204V15.1505V15.1806V15.2107V15.2408V15.2709V15.301V15.3311V15.3612V15.3913V15.4214V15.4514V15.4815V15.5115V15.5416V15.5716V15.6017V15.6317V15.6617V15.6917V15.7217V15.7517V15.7816V15.8116V15.8416V15.8715V15.9014V15.9313V15.9612V15.9911V16.021V16.0509V16.0807V16.1105V16.1403V16.1701V16.1999V16.2297V16.2594V16.2892V16.3189V16.3486V16.3782V16.4079V16.4375V16.4671V16.4967V16.5263V16.5559V16.5854V16.6149V16.6444V16.6738V16.7033V16.7327V16.7621V16.7914V16.8208V16.8501V16.8794V16.9086V16.9379V16.9671V16.9963V17.0254V17.0545V17.0836V17.1127V17.1417V17.1707V17.1997V17.2286V17.2575V17.2864V17.3152V17.344V17.3728V17.4016V17.4303V17.459V17.4876V17.5162V17.5448V17.5733V17.6018V17.6302V17.6587V17.687V17.7154V17.7437V17.772V17.8002V17.8284V17.8565V17.8846V17.9127V17.9407V17.9687V17.9966V18.0245V18.0524V18.0802V18.1079V18.1356V18.1633V18.1909V18.2185V18.246V18.2735V18.301V18.3284V18.3557V18.383V18.4102V18.4374V18.4646V18.4917V18.5187V18.5457V18.5727V18.5996V18.6264V18.6532V18.6799V18.7066V18.7332V18.7598V18.7863V18.8128V18.8392V18.8655V18.8918V18.918V18.9442V18.9703V18.9964V19.0224V19.0484V19.0742V19.1001V19.1258V19.1515V19.1772V19.2027V19.2283V19.2537V19.2791V19.3044V19.3297V19.3549V19.38V19.4051V19.4301V19.4551V19.4799V19.5047V19.5295V19.5542V19.5788V19.6033V19.6278V19.6522V19.6765V19.7008V19.7249V19.7491V19.7731V19.7971V19.821V19.8448V19.8686V19.8922V19.9159V19.9394V19.9628V19.9862V20.0095V20.0328V20.0559V20.079V20.102V20.1249V20.1478V20.1706V20.1932V20.2159V20.2384V20.2608V20.2832V20.3055V20.3277V20.3498V20.3719V20.3938V20.4157V20.4375V20.4592V20.4808V20.5024V20.5238V20.5452V20.5665V20.5877V20.6088V20.6298V20.6507V20.6716V20.6923V20.713V20.7336V20.7541V20.7745V20.7948V20.815V20.8351V20.8551V20.8751V20.8949V20.9147V20.9343V20.9539V20.9734V20.9928V21.012V21.0312V21.0503V21.0693V21.0882V21.107V21.1257V21.1443V21.1628V21.1812V21.1995V21.2177V21.2358V21.2538V21.2717V21.2895V21.3072V21.3248V21.3423V21.3597V21.377V21.3941V21.4112V21.4282V21.4451V21.4618V21.4785V21.495V21.5114V21.5278C25.1875 22.368 25.1398 22.9372 25.0612 23.3232C24.9822 23.7112 24.8903 23.8207 24.8747 23.8373C24.8691 23.8432 24.864 23.848 24.8477 23.8556C24.8265 23.8656 24.7801 23.883 24.6894 23.8986C24.4824 23.9342 24.2108 23.9375 23.75 23.9375C23.282 23.9375 23.007 23.9342 22.7984 23.8985C22.7071 23.8829 22.6613 23.8655 22.6412 23.856C22.6261 23.8489 22.6225 23.8451 22.6182 23.8405C22.6044 23.8258 22.5136 23.7177 22.4359 23.3276C22.3587 22.94 22.3125 22.3695 22.3125 21.5278V8.47222ZM23.75 3.9375C22.5421 3.9375 21.301 4.06518 20.6514 5.1478C20.3682 5.61986 20.2735 6.16436 20.2304 6.66708C20.1875 7.16845 20.1875 7.77089 20.1875 8.43301V8.43303V8.47222V21.5278C20.1875 22.4222 20.2345 23.1538 20.3518 23.7427C20.4686 24.3291 20.6737 24.8721 21.0656 25.2914C21.4772 25.7318 21.9793 25.9141 22.4396 25.993C22.8469 26.0628 23.3017 26.0626 23.6996 26.0625L23.75 26.0625L23.7996 26.0625C24.1915 26.0626 24.6433 26.0628 25.0497 25.9929C25.5086 25.9139 26.0091 25.732 26.4212 25.2947C26.8146 24.8772 27.0237 24.3357 27.1435 23.7471C27.2637 23.1566 27.3125 22.4237 27.3125 21.5278V21.5114V21.495V21.4785V21.4618V21.4451V21.4282V21.4112V21.3941V21.377V21.3597V21.3423V21.3248V21.3072V21.2895V21.2717V21.2538V21.2358V21.2177V21.1995V21.1812V21.1628V21.1443V21.1257V21.107V21.0882V21.0693V21.0503V21.0312V21.012V20.9928V20.9734V20.9539V20.9343V20.9147V20.8949V20.8751V20.8551V20.8351V20.815V20.7948V20.7745V20.7541V20.7336V20.713V20.6923V20.6716V20.6507V20.6298V20.6088V20.5877V20.5665V20.5452V20.5238V20.5024V20.4808V20.4592V20.4375V20.4157V20.3938V20.3719V20.3498V20.3277V20.3055V20.2832V20.2608V20.2384V20.2159V20.1932V20.1706V20.1478V20.1249V20.102V20.079V20.0559V20.0328V20.0095V19.9862V19.9628V19.9394V19.9159V19.8922V19.8686V19.8448V19.821V19.7971V19.7731V19.7491V19.7249V19.7008V19.6765V19.6522V19.6278V19.6033V19.5788V19.5542V19.5295V19.5047V19.4799V19.4551V19.4301V19.4051V19.38V19.3549V19.3297V19.3044V19.2791V19.2537V19.2283V19.2027V19.1772V19.1515V19.1258V19.1001V19.0742V19.0484V19.0224V18.9964V18.9703V18.9442V18.918V18.8918V18.8655V18.8392V18.8128V18.7863V18.7598V18.7332V18.7066V18.6799V18.6532V18.6264V18.5996V18.5727V18.5457V18.5187V18.4917V18.4646V18.4374V18.4102V18.383V18.3557V18.3284V18.301V18.2735V18.246V18.2185V18.1909V18.1633V18.1356V18.1079V18.0802V18.0524V18.0245V17.9966V17.9687V17.9407V17.9127V17.8846V17.8565V17.8284V17.8002V17.772V17.7437V17.7154V17.687V17.6587V17.6302V17.6018V17.5733V17.5448V17.5162V17.4876V17.459V17.4303V17.4016V17.3728V17.344V17.3152V17.2864V17.2575V17.2286V17.1997V17.1707V17.1417V17.1127V17.0836V17.0545V17.0254V16.9963V16.9671V16.9379V16.9086V16.8794V16.8501V16.8208V16.7914V16.7621V16.7327V16.7033V16.6738V16.6444V16.6149V16.5854V16.5559V16.5263V16.4967V16.4671V16.4375V16.4079V16.3782V16.3486V16.3189V16.2892V16.2594V16.2297V16.1999V16.1701V16.1403V16.1105V16.0807V16.0509V16.021V15.9911V15.9612V15.9313V15.9014V15.8715V15.8416V15.8116V15.7816V15.7517V15.7217V15.6917V15.6617V15.6317V15.6017V15.5716V15.5416V15.5115V15.4815V15.4514V15.4214V15.3913V15.3612V15.3311V15.301V15.2709V15.2408V15.2107V15.1806V15.1505V15.1204V15.0903V15.0602V15.0301V15V14.9699V14.9398V14.9097V14.8796V14.8495V14.8193V14.7892V14.7591V14.7291V14.699V14.6689V14.6388V14.6087V14.5786V14.5486V14.5185V14.4885V14.4584V14.4284V14.3983V14.3683V14.3383V14.3083V14.2783V14.2483V14.2184V14.1884V14.1584V14.1285V14.0986V14.0687V14.0388V14.0089V13.979V13.9491V13.9193V13.8895V13.8597V13.8299V13.8001V13.7703V13.7406V13.7108V13.6811V13.6514V13.6218V13.5921V13.5625V13.5329V13.5033V13.4737V13.4441V13.4146V13.3851V13.3556V13.3262V13.2967V13.2673V13.2379V13.2086V13.1792V13.1499V13.1206V13.0914V13.0621V13.0329V13.0037V12.9746V12.9455V12.9164V12.8873V12.8583V12.8293V12.8003V12.7714V12.7425V12.7136V12.6848V12.6559V12.6272V12.5984V12.5697V12.541V12.5124V12.4838V12.4552V12.4267V12.3982V12.3698V12.3413V12.313V12.2846V12.2563V12.228V12.1998V12.1716V12.1435V12.1154V12.0873V12.0593V12.0313V12.0034V11.9755V11.9476V11.9198V11.8921V11.8644V11.8367V11.8091V11.7815V11.7539V11.7265V11.699V11.6716V11.6443V11.617V11.5897V11.5626V11.5354V11.5083V11.4813V11.4543V11.4273V11.4004V11.3736V11.3468V11.3201V11.2934V11.2668V11.2402V11.2137V11.1872V11.1608V11.1345V11.1082V11.082V11.0558V11.0297V11.0036V10.9776V10.9516V10.9258V10.8999V10.8742V10.8485V10.8228V10.7973V10.7717V10.7463V10.7209V10.6956V10.6703V10.6451V10.62V10.5949V10.5699V10.5449V10.5201V10.4953V10.4705V10.4458V10.4212V10.3967V10.3722V10.3478V10.3235V10.2992V10.2751V10.2509V10.2269V10.2029V10.179V10.1552V10.1314V10.1078V10.0841V10.0606V10.0371V10.0138V9.99046V9.96722V9.94407V9.92099V9.89798V9.87506V9.85221V9.82944V9.80676V9.78415V9.76162V9.73917V9.7168V9.69451V9.6723V9.65018V9.62813V9.60617V9.5843V9.56251V9.5408V9.51917V9.49763V9.47618V9.45481V9.43353V9.41233V9.39122V9.3702V9.34927V9.32842V9.30766V9.287V9.26642V9.24593V9.22553V9.20523V9.18501V9.16489V9.14485V9.12491V9.10507V9.08531V9.06565V9.04609V9.02662V9.00724V8.98796V8.96877V8.94969V8.93069V8.9118V8.893V8.8743V8.8557V8.8372V8.8188V8.80049V8.78229V8.76419V8.74618V8.72828V8.71049V8.69279V8.67519V8.6577V8.64032V8.62303V8.60585V8.58878V8.57181V8.55494V8.53819V8.52153V8.50499V8.48855V8.47222L27.3125 8.43301C27.3125 7.77089 27.3125 7.16845 27.2696 6.66708C27.2265 6.16436 27.1318 5.61986 26.8486 5.1478C26.199 4.06518 24.9579 3.9375 23.75 3.9375ZM13.5987 11.875C13.5675 12.1567 13.5662 12.4849 13.5662 12.9167L13.5662 17.5L13.5662 22.0833C13.5662 22.0935 13.5661 22.1037 13.5658 22.1139C13.5348 23.1884 13.7304 23.5515 13.8466 23.6761C13.947 23.7837 14.1995 23.9375 14.9997 23.9375C15.7819 23.9375 16.0421 23.7855 16.1491 23.672C16.268 23.546 16.4678 23.1822 16.4336 22.1174C16.4333 22.1061 16.4331 22.0947 16.4331 22.0833V17.5L16.4331 12.9167C16.4331 12.4849 16.4318 12.1567 16.4006 11.875C16.3698 11.5972 16.3175 11.4551 16.2721 11.3793L16.2706 11.3768C16.2413 11.3271 16.0853 11.0625 14.9997 11.0625C13.914 11.0625 13.758 11.3271 13.7287 11.3768L13.7272 11.3793C13.6818 11.4551 13.6295 11.5972 13.5987 11.875ZM11.9042 10.2873C12.5029 9.28784 13.6098 8.9375 14.9997 8.9375C16.3895 8.9375 17.4964 9.28784 18.0951 10.2873C18.3617 10.7324 18.4654 11.2153 18.5126 11.6407C18.5582 12.0512 18.5581 12.492 18.5581 12.8858L18.5581 12.9167L18.5581 17.5V22.0668C18.5951 23.2866 18.4078 24.3743 17.695 25.1301C16.9669 25.902 15.9424 26.0625 14.9997 26.0625C14.0477 26.0625 13.0192 25.9038 12.2932 25.126C11.586 24.3684 11.4081 23.2793 11.4412 22.0684L11.4412 17.5L11.4412 12.9167L11.4412 12.8858C11.4412 12.492 11.4412 12.0512 11.4867 11.6407C11.5339 11.2153 11.6376 10.7324 11.9042 10.2873ZM4.84636 18.1495C4.81359 18.4793 4.8125 18.8772 4.8125 19.4097V22.8679C4.8125 23.4685 4.95772 23.6329 5.02811 23.6924C5.14262 23.7893 5.45256 23.9375 6.25 23.9375C7.02963 23.9375 7.34431 23.7909 7.46505 23.6896C7.54107 23.6258 7.6875 23.4581 7.6875 22.8679V22.859V22.8501V22.8412V22.8324V22.8236V22.8148V22.806V22.7972V22.7885V22.7798V22.771V22.7623V22.7537V22.745V22.7364V22.7277V22.7191V22.7105V22.702V22.6934V22.6849V22.6763V22.6678V22.6593V22.6509V22.6424V22.634V22.6256V22.6172V22.6088V22.6004V22.592V22.5837V22.5754V22.5671V22.5588V22.5505V22.5422V22.534V22.5258V22.5176V22.5094V22.5012V22.493V22.4849V22.4767V22.4686V22.4605V22.4524V22.4444V22.4363V22.4283V22.4202V22.4122V22.4042V22.3963V22.3883V22.3804V22.3724V22.3645V22.3566V22.3487V22.3408V22.333V22.3251V22.3173V22.3095V22.3017V22.2939V22.2861V22.2783V22.2706V22.2629V22.2551V22.2474V22.2397V22.2321V22.2244V22.2168V22.2091V22.2015V22.1939V22.1863V22.1787V22.1712V22.1636V22.1561V22.1485V22.141V22.1335V22.126V22.1185V22.1111V22.1036V22.0962V22.0888V22.0814V22.074V22.0666V22.0592V22.0518V22.0445V22.0371V22.0298V22.0225V22.0152V22.0079V22.0006V21.9934V21.9861V21.9789V21.9717V21.9644V21.9572V21.95V21.9429V21.9357V21.9285V21.9214V21.9142V21.9071V21.9V21.8929V21.8858V21.8787V21.8717V21.8646V21.8576V21.8505V21.8435V21.8365V21.8295V21.8225V21.8155V21.8085V21.8016V21.7946V21.7877V21.7807V21.7738V21.7669V21.76V21.7531V21.7462V21.7394V21.7325V21.7256V21.7188V21.712V21.7051V21.6983V21.6915V21.6847V21.678V21.6712V21.6644V21.6577V21.6509V21.6442V21.6374V21.6307V21.624V21.6173V21.6106V21.6039V21.5973V21.5906V21.5839V21.5773V21.5706V21.564V21.5574V21.5508V21.5442V21.5376V21.531V21.5244V21.5178V21.5112V21.5047V21.4981V21.4916V21.485V21.4785V21.472V21.4655V21.459V21.4525V21.446V21.4395V21.433V21.4265V21.4201V21.4136V21.4072V21.4007V21.3943V21.3879V21.3815V21.375V21.3686V21.3622V21.3558V21.3494V21.3431V21.3367V21.3303V21.324V21.3176V21.3113V21.3049V21.2986V21.2922V21.2859V21.2796V21.2733V21.267V21.2607V21.2544V21.2481V21.2418V21.2355V21.2292V21.223V21.2167V21.2105V21.2042V21.198V21.1917V21.1855V21.1792V21.173V21.1668V21.1606V21.1544V21.1481V21.1419V21.1357V21.1295V21.1234V21.1172V21.111V21.1048V21.0986V21.0925V21.0863V21.0801V21.074V21.0678V21.0617V21.0555V21.0494V21.0433V21.0371V21.031V21.0249V21.0187V21.0126V21.0065V21.0004V20.9943V20.9882V20.9821V20.976V20.9699V20.9638V20.9577V20.9516V20.9455V20.9394V20.9333V20.9272V20.9212V20.9151V20.909V20.903V20.8969V20.8908V20.8848V20.8787V20.8727V20.8666V20.8605V20.8545V20.8484V20.8424V20.8363V20.8303V20.8243V20.8182V20.8122V20.8061V20.8001V20.7941V20.788V20.782V20.776V20.7699V20.7639V20.7579V20.7518V20.7458V20.7398V20.7338V20.7277V20.7217V20.7157V20.7097V20.7036V20.6976V20.6916V20.6856V20.6796V20.6735V20.6675V20.6615V20.6555V20.6495V20.6434V20.6374V20.6314V20.6254V20.6193V20.6133V20.6073V20.6013V20.5953V20.5892V20.5832V20.5772V20.5712V20.5651V20.5591V20.5531V20.547V20.541V20.535V20.5289V20.5229V20.5169V20.5108V20.5048V20.4988V20.4927V20.4867V20.4806V20.4746V20.4685V20.4625V20.4564V20.4504V20.4443V20.4383V20.4322V20.4261V20.4201V20.414V20.4079V20.4019V20.3958V20.3897V20.3836V20.3776V20.3715V20.3654V20.3593V20.3532V20.3471V20.341V20.3349V20.3288V20.3227V20.3166V20.3105V20.3043V20.2982V20.2921V20.286V20.2798V20.2737V20.2676V20.2614V20.2553V20.2491V20.243V20.2368V20.2307V20.2245V20.2183V20.2121V20.206V20.1998V20.1936V20.1874V20.1812V20.175V20.1688V20.1626V20.1564V20.1502V20.1439V20.1377V20.1315V20.1252V20.119V20.1127V20.1065V20.1002V20.094V20.0877V20.0814V20.0751V20.0689V20.0626V20.0563V20.05V20.0436V20.0373V20.031V20.0247V20.0184V20.012V20.0057V19.9993V19.993V19.9866V19.9802V19.9739V19.9675V19.9611V19.9547V19.9483V19.9419V19.9355V19.929V19.9226V19.9162V19.9097V19.9033V19.8968V19.8904V19.8839V19.8774V19.8709V19.8644V19.8579V19.8514V19.8449V19.8384V19.8319V19.8253V19.8188V19.8122V19.8057V19.7991V19.7925V19.7859V19.7794V19.7728V19.7661V19.7595V19.7529V19.7463V19.7396V19.733V19.7263V19.7196V19.713V19.7063V19.6996V19.6929V19.6862V19.6794V19.6727V19.666V19.6592V19.6525V19.6457V19.6389V19.6321V19.6253V19.6185V19.6117V19.6049V19.5981V19.5912V19.5844V19.5775V19.5706V19.5638V19.5569V19.55V19.5431V19.5361V19.5292V19.5223V19.5153V19.5083V19.5014V19.4944V19.4874V19.4804V19.4734V19.4663V19.4593V19.4522V19.4452V19.4381V19.431V19.4286L7.67885 19.1758V19.1758C7.66503 18.7643 7.65423 18.4425 7.62353 18.1587C7.58667 17.8179 7.53116 17.659 7.48698 17.5816L7.48615 17.5798C7.47489 17.5546 7.36667 17.3125 6.25 17.3125C5.12845 17.3125 4.99785 17.5573 4.97987 17.591L4.9785 17.5935C4.9354 17.6668 4.87906 17.8204 4.84636 18.1495ZM3.1465 16.5167C3.75932 15.4741 4.9065 15.1875 6.25 15.1875C7.59596 15.1875 8.73219 15.4758 9.33279 16.5287C9.59191 16.9829 9.68804 17.4848 9.73621 17.9302C9.77623 18.3002 9.79006 18.7191 9.80366 19.1308C9.80632 19.2116 9.80898 19.2921 9.81183 19.3719L9.81219 19.384L9.8125 19.4097V19.4168V19.4239V19.431V19.4381V19.4452V19.4522V19.4593V19.4663V19.4734V19.4804V19.4874V19.4944V19.5014V19.5083V19.5153V19.5223V19.5292V19.5361V19.5431V19.55V19.5569V19.5638V19.5706V19.5775V19.5844V19.5912V19.5981V19.6049V19.6117V19.6185V19.6253V19.6321V19.6389V19.6457V19.6525V19.6592V19.666V19.6727V19.6794V19.6862V19.6929V19.6996V19.7063V19.713V19.7196V19.7263V19.733V19.7396V19.7463V19.7529V19.7595V19.7661V19.7728V19.7794V19.7859V19.7925V19.7991V19.8057V19.8122V19.8188V19.8253V19.8319V19.8384V19.8449V19.8514V19.8579V19.8644V19.8709V19.8774V19.8839V19.8904V19.8968V19.9033V19.9097V19.9162V19.9226V19.929V19.9355V19.9419V19.9483V19.9547V19.9611V19.9675V19.9739V19.9802V19.9866V19.993V19.9993V20.0057V20.012V20.0184V20.0247V20.031V20.0373V20.0436V20.05V20.0563V20.0626V20.0689V20.0751V20.0814V20.0877V20.094V20.1002V20.1065V20.1127V20.119V20.1252V20.1315V20.1377V20.1439V20.1502V20.1564V20.1626V20.1688V20.175V20.1812V20.1874V20.1936V20.1998V20.206V20.2121V20.2183V20.2245V20.2307V20.2368V20.243V20.2491V20.2553V20.2614V20.2676V20.2737V20.2798V20.286V20.2921V20.2982V20.3043V20.3105V20.3166V20.3227V20.3288V20.3349V20.341V20.3471V20.3532V20.3593V20.3654V20.3715V20.3776V20.3836V20.3897V20.3958V20.4019V20.4079V20.414V20.4201V20.4261V20.4322V20.4383V20.4443V20.4504V20.4564V20.4625V20.4685V20.4746V20.4806V20.4867V20.4927V20.4988V20.5048V20.5108V20.5169V20.5229V20.5289V20.535V20.541V20.547V20.5531V20.5591V20.5651V20.5712V20.5772V20.5832V20.5892V20.5953V20.6013V20.6073V20.6133V20.6193V20.6254V20.6314V20.6374V20.6434V20.6495V20.6555V20.6615V20.6675V20.6735V20.6796V20.6856V20.6916V20.6976V20.7036V20.7097V20.7157V20.7217V20.7277V20.7338V20.7398V20.7458V20.7518V20.7579V20.7639V20.7699V20.776V20.782V20.788V20.7941V20.8001V20.8061V20.8122V20.8182V20.8243V20.8303V20.8363V20.8424V20.8484V20.8545V20.8605V20.8666V20.8727V20.8787V20.8848V20.8908V20.8969V20.903V20.909V20.9151V20.9212V20.9272V20.9333V20.9394V20.9455V20.9516V20.9577V20.9638V20.9699V20.976V20.9821V20.9882V20.9943V21.0004V21.0065V21.0126V21.0187V21.0249V21.031V21.0371V21.0433V21.0494V21.0555V21.0617V21.0678V21.074V21.0801V21.0863V21.0925V21.0986V21.1048V21.111V21.1172V21.1234V21.1295V21.1357V21.1419V21.1481V21.1544V21.1606V21.1668V21.173V21.1792V21.1855V21.1917V21.198V21.2042V21.2105V21.2167V21.223V21.2292V21.2355V21.2418V21.2481V21.2544V21.2607V21.267V21.2733V21.2796V21.2859V21.2922V21.2986V21.3049V21.3113V21.3176V21.324V21.3303V21.3367V21.3431V21.3494V21.3558V21.3622V21.3686V21.375V21.3815V21.3879V21.3943V21.4007V21.4072V21.4136V21.4201V21.4265V21.433V21.4395V21.446V21.4525V21.459V21.4655V21.472V21.4785V21.485V21.4916V21.4981V21.5047V21.5112V21.5178V21.5244V21.531V21.5376V21.5442V21.5508V21.5574V21.564V21.5706V21.5773V21.5839V21.5906V21.5973V21.6039V21.6106V21.6173V21.624V21.6307V21.6374V21.6442V21.6509V21.6577V21.6644V21.6712V21.678V21.6847V21.6915V21.6983V21.7051V21.712V21.7188V21.7256V21.7325V21.7394V21.7462V21.7531V21.76V21.7669V21.7738V21.7807V21.7877V21.7946V21.8016V21.8085V21.8155V21.8225V21.8295V21.8365V21.8435V21.8505V21.8576V21.8646V21.8717V21.8787V21.8858V21.8929V21.9V21.9071V21.9142V21.9214V21.9285V21.9357V21.9429V21.95V21.9572V21.9644V21.9717V21.9789V21.9861V21.9934V22.0006V22.0079V22.0152V22.0225V22.0298V22.0371V22.0445V22.0518V22.0592V22.0666V22.074V22.0814V22.0888V22.0962V22.1036V22.1111V22.1185V22.126V22.1335V22.141V22.1485V22.1561V22.1636V22.1712V22.1787V22.1863V22.1939V22.2015V22.2091V22.2168V22.2244V22.2321V22.2397V22.2474V22.2551V22.2629V22.2706V22.2783V22.2861V22.2939V22.3017V22.3095V22.3173V22.3251V22.333V22.3408V22.3487V22.3566V22.3645V22.3724V22.3804V22.3883V22.3963V22.4042V22.4122V22.4202V22.4283V22.4363V22.4444V22.4524V22.4605V22.4686V22.4767V22.4849V22.493V22.5012V22.5094V22.5176V22.5258V22.534V22.5422V22.5505V22.5588V22.5671V22.5754V22.5837V22.592V22.6004V22.6088V22.6172V22.6256V22.634V22.6424V22.6509V22.6593V22.6678V22.6763V22.6849V22.6934V22.702V22.7105V22.7191V22.7277V22.7364V22.745V22.7537V22.7623V22.771V22.7798V22.7885V22.7972V22.806V22.8148V22.8236V22.8324V22.8412V22.8501V22.859V22.8679C9.8125 23.7967 9.57287 24.695 8.83084 25.3176C8.13355 25.9026 7.19823 26.0625 6.25 26.0625C5.29248 26.0625 4.35241 25.9042 3.65567 25.3148C2.9148 24.688 2.6875 23.7863 2.6875 22.8679V19.4097V19.3754V19.3754C2.68748 18.8858 2.68745 18.3853 2.73177 17.9394C2.77718 17.4824 2.8771 16.9751 3.1465 16.5167Z" fill="black"/>
</svg>
