<svg width="30" height="30" viewBox="0 0 30 30" fill="none" xmlns="http://www.w3.org/2000/svg">
<path fill-rule="evenodd" clip-rule="evenodd" d="M2.58883 15C2.58883 8.1455 8.1455 2.58883 15 2.58883C21.8545 2.58883 27.4112 8.1455 27.4112 15C27.4112 21.8545 21.8545 27.4112 15 27.4112C8.1455 27.4112 2.58883 21.8545 2.58883 15ZM15 0C6.71573 0 0 6.71573 0 15C0 23.2843 6.71573 30 15 30C23.2843 30 30 23.2843 30 15C30 6.71573 23.2843 0 15 0ZM13.7056 15C13.7056 15.7149 14.2851 16.2944 15 16.2944C15.7149 16.2944 16.2944 15.7149 16.2944 15V8.90865C16.2944 8.19376 15.7149 7.61423 15 7.61423C14.2851 7.61423 13.7056 8.19376 13.7056 8.90865V15ZM15 18.5787C14.0328 18.5787 13.2487 19.3628 13.2487 20.33C13.2487 21.2972 14.0328 22.0812 15 22.0812C15.9672 22.0812 16.7513 21.2972 16.7513 20.33C16.7513 19.3628 15.9672 18.5787 15 18.5787Z" fill="#1E1E1E"/>
</svg>
