<svg width="30" height="30" viewBox="0 0 30 30" fill="none" xmlns="http://www.w3.org/2000/svg">
<path d="M16.6321 1.05457C16.331 0.41011 15.6947 0 14.9959 0C14.2971 0 13.6665 0.41011 13.3597 1.05457L9.70671 8.80566L1.5485 10.0477C0.866751 10.1532 0.29863 10.6453 0.0884249 11.319C-0.12178 11.9928 0.0486563 12.7369 0.53724 13.2348L6.45706 19.2752L5.05948 27.8113C4.94586 28.5144 5.22992 29.2291 5.79236 29.6451C6.3548 30.0611 7.09904 30.1138 7.71261 29.7799L15.0016 25.7666L22.2906 29.7799C22.9042 30.1138 23.6484 30.0669 24.2108 29.6451C24.7733 29.2233 25.0573 28.5144 24.9437 27.8113L23.5405 19.2752L29.4603 13.2348C29.9489 12.7369 30.125 11.9928 29.9091 11.319C29.6932 10.6453 29.1308 10.1532 28.449 10.0477L20.2851 8.80566L16.6321 1.05457Z" fill="#1E1E1E"/>
</svg>
