<svg width="21" height="21" viewBox="0 0 21 21" fill="none" xmlns="http://www.w3.org/2000/svg">
<path d="M13.9536 15.5309C12.2335 16.8662 10.0693 17.4957 7.90144 17.2913C5.7336 17.087 3.72512 16.0641 2.28481 14.431C0.844504 12.7979 0.080645 10.6772 0.14872 8.50068C0.216794 6.32417 1.11169 4.2554 2.65123 2.71548C4.19105 1.17583 6.25969 0.280886 8.43607 0.212807C10.6124 0.144728 12.733 0.908636 14.366 2.34903C15.999 3.78943 17.0218 5.79805 17.2261 7.96602C17.4305 10.134 16.801 12.2984 15.4659 14.0185L19.8031 18.356C19.9439 18.4868 20.0469 18.6532 20.1011 18.8376C20.1553 19.022 20.1588 19.2176 20.1112 19.4038C20.0636 19.5901 19.9667 19.76 19.8306 19.8958C19.6945 20.0315 19.5243 20.128 19.338 20.1752C19.1519 20.2228 18.9565 20.2195 18.7722 20.1655C18.588 20.1115 18.4216 20.0089 18.2908 19.8684L13.9536 15.5309ZM15.1235 8.76794C15.1362 7.91701 14.9795 7.07205 14.6627 6.28221C14.3458 5.49237 13.8751 4.77342 13.2779 4.16718C12.6807 3.56095 11.9689 3.07952 11.1839 2.75092C10.3989 2.42232 9.55642 2.2531 8.70545 2.2531C7.85448 2.2531 7.012 2.42232 6.22702 2.75092C5.44204 3.07952 4.73024 3.56095 4.13301 4.16718C3.53578 4.77342 3.06506 5.49237 2.74821 6.28221C2.43137 7.07205 2.27474 7.91701 2.28743 8.76794C2.31256 10.4536 2.9998 12.0618 4.20068 13.245C5.40156 14.4282 7.01967 15.0914 8.70545 15.0914C10.3912 15.0914 12.0093 14.4282 13.2102 13.245C14.4111 12.0618 15.0983 10.4536 15.1235 8.76794Z" fill="#5800D6"/>
</svg>
