<svg xmlns="http://www.w3.org/2000/svg" width="36" height="33" viewBox="0 0 36 33" fill="none">
  <path d="M30.5938 8.125H24.6875V6.83594C24.6875 6.0838 24.3616 5.36247 23.7814 4.83063C23.2012 4.29879 22.4143 4 21.5938 4H14.8438C14.0232 4 13.2363 4.29879 12.6561 4.83063C12.0759 5.36247 11.75 6.0838 11.75 6.83594V8.125H5.84375C5.61997 8.125 5.40536 8.20649 5.24713 8.35153C5.08889 8.49658 5 8.69331 5 8.89844C5 9.10357 5.08889 9.30029 5.24713 9.44534C5.40536 9.59039 5.61997 9.67188 5.84375 9.67188H7.25V28.4922C7.25 28.9708 7.45742 29.4298 7.82663 29.7683C8.19585 30.1067 8.69661 30.2969 9.21875 30.2969H27.2188C27.7409 30.2969 28.2417 30.1067 28.6109 29.7683C28.9801 29.4298 29.1875 28.9708 29.1875 28.4922V9.67188H30.5938C30.8175 9.67188 31.0321 9.59039 31.1904 9.44534C31.3486 9.30029 31.4375 9.10357 31.4375 8.89844C31.4375 8.69331 31.3486 8.49658 31.1904 8.35153C31.0321 8.20649 30.8175 8.125 30.5938 8.125ZM13.4375 6.83594C13.4375 6.49406 13.5857 6.16618 13.8494 5.92443C14.1131 5.68269 14.4708 5.54688 14.8438 5.54688H21.5938C21.9667 5.54688 22.3244 5.68269 22.5881 5.92443C22.8518 6.16618 23 6.49406 23 6.83594V8.125H13.4375V6.83594ZM27.5 28.4922C27.5 28.5606 27.4704 28.6261 27.4176 28.6745C27.3649 28.7228 27.2933 28.75 27.2188 28.75H9.21875C9.14416 28.75 9.07262 28.7228 9.01988 28.6745C8.96713 28.6261 8.9375 28.5606 8.9375 28.4922V9.67188H27.5V28.4922ZM15.6875 15.0859V23.3359C15.6875 23.5411 15.5986 23.7378 15.4404 23.8828C15.2821 24.0279 15.0675 24.1094 14.8438 24.1094C14.62 24.1094 14.4054 24.0279 14.2471 23.8828C14.0889 23.7378 14 23.5411 14 23.3359V15.0859C14 14.8808 14.0889 14.6841 14.2471 14.539C14.4054 14.394 14.62 14.3125 14.8438 14.3125C15.0675 14.3125 15.2821 14.394 15.4404 14.539C15.5986 14.6841 15.6875 14.8808 15.6875 15.0859ZM22.4375 15.0859V23.3359C22.4375 23.5411 22.3486 23.7378 22.1904 23.8828C22.0321 24.0279 21.8175 24.1094 21.5938 24.1094C21.37 24.1094 21.1554 24.0279 20.9971 23.8828C20.8389 23.7378 20.75 23.5411 20.75 23.3359V15.0859C20.75 14.8808 20.8389 14.6841 20.9971 14.539C21.1554 14.394 21.37 14.3125 21.5938 14.3125C21.8175 14.3125 22.0321 14.394 22.1904 14.539C22.3486 14.6841 22.4375 14.8808 22.4375 15.0859Z" fill="#1E1E1E"/>
</svg>